<svg xmlns="http://www.w3.org/2000/svg" viewBox="1150 1310 1120 1220" fill="none" aria-hidden="true">
  <path d="M1716 1836.58L1377.7 1916.48L1163 2518.53H1667.66C1672.09 2416.22 1685.37 2119.26 1688.08 2075.42C1688.58 2068.21 1673.44 2052.21 1675.51 2026.15C1677.37 2002.09 1684.15 1995.31 1684.51 1988.38C1685.01 1979.6 1678.51 1977.1 1670.87 1959.61C1665.09 1946.26 1664.23 1926.05 1668.23 1908.77C1669.23 1904.41 1677.01 1878.5 1686.3 1876C1695.44 1873.5 1728.42 1874.93 1737.21 1876.57C1749.7 1878.92 1757.63 1903.7 1758.84 1908.77C1762.84 1926.12 1762.05 1946.26 1756.2 1959.61C1748.63 1977.03 1742.06 1979.6 1742.56 1988.38C1742.99 1995.31 1749.7 2002.09 1751.56 2026.15C1753.56 2052.29 1738.42 2068.28 1738.78 2075.42C1741.49 2119.26 1754.84 2416.22 1759.2 2518.53H2264L2049.3 1916.48L1716 1836.58Z" fill="#C4A962"/>
  <path d="M1789.68 1323.28C1786.83 1461.02 1783.97 1637.16 1863.66 1752.69C1920.28 1730.98 1987.18 1753.4 2034.23 1798.74C2002.53 1755.69 1953.05 1681.64 1935.63 1614.81C1909.71 1515.49 1911.28 1402.68 1909.42 1382.05C1907.28 1358.77 1857.52 1334.35 1789.68 1323.28Z" fill="#E5B020"/>
  <path d="M1713.07 1317.07C1686.44 1317.14 1660.81 1319.36 1637.32 1323.21C1640.17 1460.94 1643.03 1637.09 1563.34 1752.62C1610.9 1724.98 1670.87 1710.99 1713.5 1710.92C1756.13 1710.99 1816.17 1724.98 1863.66 1752.62C1784.04 1637.09 1786.9 1460.94 1789.68 1323.21C1766.12 1319.36 1740.49 1317 1713.79 1317C1713.64 1317 1713.57 1317 1713.43 1317C1713.29 1317.07 1713.21 1317.07 1713.07 1317.07Z" fill="#D49518"/>
  <path d="M1637.24 1323.21C1569.41 1334.35 1519.58 1358.77 1517.5 1381.97C1515.65 1402.61 1517.22 1515.42 1491.3 1614.74C1473.81 1681.72 1424.18 1755.9 1392.48 1798.88C1439.46 1753.4 1506.58 1730.84 1563.34 1752.62C1643.03 1637.09 1640.1 1460.94 1637.24 1323.21Z" fill="#B87314"/>
</svg>
