<svg width="5000" height="3630" viewBox="0 0 5000 3630" fill="none" xmlns="http://www.w3.org/2000/svg">
<rect width="5000" height="3630" fill="#F5F5F5"/>
<g clip-path="url(#clip0_0_1)">
<mask id="mask0_0_1" style="mask-type:luminance" maskUnits="userSpaceOnUse" x="-1" y="0" width="5003" height="3630">
<path d="M5001.1 0H-1V3630H5001.1V0Z" fill="white"/>
</mask>
<g mask="url(#mask0_0_1)">
<path d="M-2 0H5001.7V3630H-2V0Z" fill="black" stroke="#E1E1E1" stroke-width="0.0368592" stroke-miterlimit="3.6859" stroke-linejoin="round"/>
</g>
<path d="M1716 1836.58L1377.7 1916.48L1163 2518.53H1667.66C1672.09 2416.22 1685.37 2119.26 1688.08 2075.42C1688.58 2068.21 1673.44 2052.21 1675.51 2026.15C1677.37 2002.09 1684.15 1995.31 1684.51 1988.38C1685.01 1979.6 1678.51 1977.1 1670.87 1959.61C1665.09 1946.26 1664.23 1926.05 1668.23 1908.77C1669.23 1904.41 1677.01 1878.5 1686.3 1876C1695.44 1873.5 1728.42 1874.93 1737.21 1876.57C1749.7 1878.92 1757.63 1903.7 1758.84 1908.77C1762.84 1926.12 1762.05 1946.26 1756.2 1959.61C1748.63 1977.03 1742.06 1979.6 1742.56 1988.38C1742.99 1995.31 1749.7 2002.09 1751.56 2026.15C1753.56 2052.29 1738.42 2068.28 1738.78 2075.42C1741.49 2119.26 1754.84 2416.22 1759.2 2518.53H2264L2049.3 1916.48L1716 1836.58Z" fill="url(#paint0_radial_0_1)"/>
<path d="M2058.15 1950.97C2050.37 1954.97 2040.16 1958.11 2028.02 1959.39C2010.67 1961.68 1989.39 1960.11 1964.47 1950.75C1934.56 1940.11 1900.78 1919.41 1866.16 1883.21C1866.08 1883.14 1866.08 1883.14 1866.01 1883.07C1865.73 1882.78 1865.51 1882.57 1865.23 1882.28C1864.08 1882.78 1862.87 1883.28 1861.59 1883.78C1816.1 1902.56 1767.62 1910.48 1713.86 1910.63C1713.71 1910.63 1713.64 1910.63 1713.5 1910.63C1713.36 1910.63 1713.29 1910.63 1713.14 1910.63C1659.45 1910.55 1611.04 1902.7 1565.77 1883.99C1564.34 1883.49 1562.99 1882.92 1561.77 1882.35C1561.42 1882.71 1561.13 1882.99 1560.77 1883.35C1526.14 1919.48 1492.44 1940.26 1462.46 1950.82C1437.54 1960.11 1416.26 1961.75 1398.91 1959.46C1386.77 1958.18 1376.56 1955.04 1368.78 1951.04C1368.42 1950.9 1368.13 1950.68 1367.85 1950.4C1380.7 1965.82 1417.19 1984.45 1453.39 1994.38C1493.09 2005.23 1542.14 2006.66 1575.63 1991.24C1601.97 2012.73 1639.74 2024.51 1675.37 2029.79C1694.86 2032.72 1703.93 2033.22 1713.43 2033.22C1723 2033.22 1732.06 2032.72 1751.49 2029.79C1787.11 2024.51 1824.81 2012.73 1851.23 1991.24C1884.79 2006.66 1933.77 2005.23 1973.47 1994.38C2009.67 1984.45 2046.09 1965.82 2059.01 1950.4C2058.79 1950.61 2058.51 1950.82 2058.15 1950.97Z" fill="url(#paint1_linear_0_1)"/>
<path d="M1758.77 1908.63C1758.7 1908.63 1758.7 1908.63 1758.77 1908.63C1744.2 1909.98 1729.28 1910.63 1713.93 1910.7C1713.79 1910.7 1713.71 1910.7 1713.57 1910.7C1713.43 1910.7 1713.36 1910.7 1713.21 1910.7C1697.79 1910.7 1682.8 1910.05 1668.23 1908.63C1664.23 1925.98 1665.02 1946.18 1670.87 1959.54C1678.44 1977.03 1685.01 1979.53 1684.51 1988.31C1684.15 1995.24 1677.37 2002.02 1675.51 2026.15C1673.44 2052.21 1688.58 2068.21 1688.08 2075.42C1685.37 2119.26 1672.09 2416.36 1667.66 2518.68H1713.07H1713.86H1759.27C1754.84 2416.36 1741.49 2119.26 1738.78 2075.42C1738.42 2068.28 1753.56 2052.29 1751.56 2026.15C1749.7 2002.09 1742.99 1995.24 1742.56 1988.31C1742.06 1979.53 1748.56 1976.96 1756.2 1959.54C1761.91 1946.18 1762.77 1925.98 1758.77 1908.63Z" fill="url(#paint2_linear_0_1)"/>
<path d="M1891.07 1906.91C1890.79 1906.98 1890.57 1907.27 1890.57 1908.06V2064.49C1883.15 2064.21 1873.37 2067.49 1864.51 2072.49C1850.16 2080.56 1838.09 2092.98 1843.38 2102.34C1845.52 2106.19 1849.59 2107.76 1854.66 2107.76C1861.94 2107.76 1871.37 2104.41 1879.79 2099.7C1892.29 2092.63 1903.14 2082.27 1902.21 2073.56C1902.21 2073.56 1902.21 2073.49 1902.21 2073.42V1917.34C1902.21 1914.12 1899.57 1909.2 1896.43 1909.2C1894 1909.27 1892 1906.77 1891.07 1906.91Z" fill="#091347"/>
<path d="M1789.68 1323.28C1786.83 1461.02 1783.97 1637.16 1863.66 1752.69C1920.28 1730.98 1987.18 1753.4 2034.23 1798.74C2002.53 1755.69 1953.05 1681.64 1935.63 1614.81C1909.71 1515.49 1911.28 1402.68 1909.42 1382.05C1907.28 1358.77 1857.52 1334.35 1789.68 1323.28Z" fill="url(#paint3_linear_0_1)"/>
<path d="M1904.21 1744.41C1890.36 1744.98 1876.72 1747.62 1863.66 1752.62C1865.23 1754.83 1865.73 1820.45 1866.94 1882.14L1866.15 1883.21C1947.91 1968.82 2025.09 1968.03 2058.15 1950.97C2061.94 1948.97 2062.22 1943.04 2062.86 1932.97C2063.86 1917.77 2064.36 1899.13 2064.29 1882.92C2064.22 1868.93 2063.79 1856.72 2062.86 1850.01C2061.58 1840.8 2058.79 1831.09 2053.15 1823.87C2048.58 1818.02 2041.3 1808.17 2034.23 1798.6C1998.1 1763.83 1950.19 1742.55 1904.21 1744.41Z" fill="url(#paint4_linear_0_1)"/>
<path d="M1713.07 1317.07C1686.44 1317.14 1660.81 1319.36 1637.32 1323.21C1640.17 1460.94 1643.03 1637.09 1563.34 1752.62C1610.9 1724.98 1670.87 1710.99 1713.5 1710.92C1756.13 1710.99 1816.17 1724.98 1863.66 1752.62C1784.04 1637.09 1786.9 1460.94 1789.68 1323.21C1766.12 1319.36 1740.49 1317 1713.79 1317C1713.64 1317 1713.57 1317 1713.43 1317C1713.29 1317.07 1713.21 1317.07 1713.07 1317.07Z" fill="url(#paint5_linear_0_1)"/>
<path d="M1713.5 1710.99C1670.87 1711.06 1610.83 1725.06 1563.34 1752.69C1561.77 1754.9 1561.2 1820.52 1559.99 1882.21L1560.77 1883.35C1561.13 1882.99 1561.42 1882.71 1561.77 1882.35C1608.18 1902.27 1657.81 1910.63 1713.07 1910.7C1713.21 1910.7 1713.29 1910.7 1713.43 1910.7C1713.57 1910.7 1713.64 1910.7 1713.79 1910.7C1769.05 1910.63 1818.67 1902.27 1865.16 1882.35C1865.44 1882.71 1865.73 1882.92 1866.08 1883.28L1866.87 1882.21C1865.65 1820.45 1865.16 1754.9 1863.58 1752.69C1816.17 1724.98 1756.13 1711.06 1713.5 1710.99Z" fill="url(#paint6_linear_0_1)"/>
<path d="M1637.24 1323.21C1569.41 1334.35 1519.58 1358.77 1517.5 1381.97C1515.65 1402.61 1517.22 1515.42 1491.3 1614.74C1473.81 1681.72 1424.18 1755.9 1392.48 1798.88C1439.46 1753.4 1506.58 1730.84 1563.34 1752.62C1643.03 1637.09 1640.1 1460.94 1637.24 1323.21Z" fill="url(#paint7_linear_0_1)"/>
<path d="M1522.72 1744.41C1476.66 1742.55 1428.61 1763.97 1392.48 1798.96L1392.41 1799.03C1385.48 1808.38 1378.34 1818.16 1373.85 1823.95C1368.21 1831.16 1365.35 1840.87 1364.14 1850.08C1362.14 1864.5 1362.28 1904.77 1364.14 1933.05C1364.78 1943.04 1365.06 1948.97 1368.92 1951.04C1401.98 1968.18 1479.09 1968.89 1560.85 1883.42L1560.06 1882.28C1561.27 1820.52 1561.84 1754.97 1563.42 1752.76C1550.21 1747.62 1536.5 1744.98 1522.72 1744.41Z" fill="url(#paint8_linear_0_1)"/>
<path d="M2722.6 1467.9C2723.1 1465.2 2725.8 1463.2 2729.1 1463.2C2732.4 1463.2 2735.1 1465.2 2735.5 1467.9C2740.4 1496.5 2746.6 1533.2 2749.1 1547.7C2749.4 1549.3 2748.8 1550.9 2747.6 1552.1C2746.4 1553.3 2744.6 1554 2742.7 1554H2715.5C2713.6 1554 2711.8 1553.3 2710.6 1552.1C2709.4 1550.9 2708.8 1549.3 2709.1 1547.7C2711.5 1533.2 2717.8 1496.5 2722.6 1467.9ZM2685.8 1324.4C2682.7 1324.4 2680 1326.2 2679.4 1328.8C2670 1366.5 2603.5 1634.7 2602.5 1638.8C2602.5 1638.9 2602.5 1638.9 2602.5 1639C2600.4 1646.6 2596 1650.4 2589.2 1650.4H2585.3C2581.7 1650.4 2578.8 1652.9 2578.8 1655.9V1685.9C2578.8 1687.4 2579.5 1688.7 2580.7 1689.8C2581.9 1690.8 2583.6 1691.4 2585.3 1691.4H2702.2C2703.9 1691.4 2705.6 1690.8 2706.8 1689.8C2708 1688.8 2708.7 1687.4 2708.7 1685.9V1655.9C2708.7 1654.4 2708 1653.1 2706.8 1652C2705.6 1651 2703.9 1650.4 2702.2 1650.4H2701.2C2695.7 1650.4 2693 1647.7 2693 1642.4C2693 1641.3 2693.1 1640.2 2693.3 1639C2693.4 1638.2 2696.8 1618.5 2698.4 1609.3C2698.9 1606.6 2701.6 1604.6 2704.8 1604.6H2753.1C2756.4 1604.6 2759.1 1606.6 2759.5 1609.3C2761.1 1618.6 2764.5 1638.2 2764.6 1639C2764.6 1639 2764.6 1639 2764.6 1639.1C2764.8 1640.3 2764.9 1641.4 2764.9 1642.5C2764.9 1647.9 2762.2 1650.5 2756.7 1650.5H2755.7C2752.1 1650.5 2749.2 1653 2749.2 1656V1686C2749.2 1687.5 2749.9 1688.8 2751.1 1689.9C2752.3 1690.9 2754 1691.5 2755.7 1691.5H2872.6C2874.3 1691.5 2876 1690.9 2877.2 1689.9C2878.4 1688.9 2879.1 1687.5 2879.1 1686V1656C2879.1 1653 2876.2 1650.5 2872.6 1650.5H2868.7C2862 1650.5 2857.6 1646.7 2855.4 1639.1C2855.4 1639.1 2855.4 1639 2855.4 1638.9C2854.4 1634.8 2787.8 1366.5 2778.5 1328.9C2777.9 1326.4 2775.2 1324.5 2772.1 1324.5H2685.8V1324.4ZM3137.9 1324.4C3134.7 1324.4 3132 1326.3 3131.5 1329C3126.8 1351.9 3105.7 1455.4 3094.9 1508.4C3094.4 1511 3091.6 1513 3088.5 1513C3085.3 1513 3082.6 1511.1 3082.1 1508.4C3071.3 1455.4 3050 1351.9 3045.3 1329C3044.8 1326.4 3042 1324.4 3038.9 1324.4H2916C2912.4 1324.4 2909.5 1326.9 2909.5 1329.9V1359.9C2909.5 1361.4 2910.2 1362.7 2911.4 1363.8C2912.6 1364.8 2914.3 1365.4 2916 1365.4H2922.2C2928.6 1365.4 2931.9 1369.2 2931.9 1376.9V1638.9C2931.9 1646.5 2928.7 1650.4 2922.2 1650.4H2916C2914.3 1650.4 2912.6 1651 2911.4 1652C2910.2 1653 2909.5 1654.4 2909.5 1655.9V1685.9C2909.5 1687.4 2910.2 1688.7 2911.4 1689.8C2912.6 1690.8 2914.3 1691.4 2916 1691.4H3024.1C3025.8 1691.4 3027.5 1690.8 3028.7 1689.8C3029.9 1688.8 3030.6 1687.4 3030.6 1685.9V1655.9C3030.6 1654.4 3029.9 1653.1 3028.7 1652C3027.5 1651 3025.8 1650.4 3024.1 1650.4H3017.9C3011.5 1650.4 3008.2 1646.6 3008.2 1638.9V1515.9C3008.2 1513 3010.8 1510.6 3014.2 1510.4C3017.6 1510.2 3020.6 1512.2 3021.1 1515C3032.9 1578.7 3049 1665.7 3052.8 1686.7C3053.3 1689.4 3056 1691.3 3059.2 1691.3H3117.1C3120.3 1691.3 3123 1689.3 3123.5 1686.7C3127.4 1665.8 3143.5 1578.7 3155.2 1515C3155.7 1512.2 3158.8 1510.1 3162.1 1510.4C3165.5 1510.6 3168.1 1513 3168.1 1515.9V1638.9C3168.1 1646.5 3164.9 1650.4 3158.4 1650.4H3152.2C3150.5 1650.4 3148.8 1651 3147.6 1652C3146.4 1653 3145.7 1654.4 3145.7 1655.9V1685.9C3145.7 1687.4 3146.4 1688.7 3147.6 1689.8C3148.8 1690.8 3150.5 1691.4 3152.2 1691.4H3260.3C3262 1691.4 3263.7 1690.8 3264.9 1689.8C3266.1 1688.8 3266.8 1687.4 3266.8 1685.9V1655.9C3266.8 1654.4 3266.1 1653.1 3264.9 1652C3263.7 1651 3262 1650.4 3260.3 1650.4H3254.1C3247.7 1650.4 3244.4 1646.6 3244.4 1638.9V1376.8C3244.4 1369.2 3247.6 1365.3 3254.1 1365.3H3260.3C3262 1365.3 3263.7 1364.7 3264.9 1363.7C3266.1 1362.7 3266.8 1361.3 3266.8 1359.8V1329.8C3266.8 1326.8 3263.9 1324.3 3260.3 1324.3H3137.9V1324.4ZM2397.6 1323.6C2385.1 1327.7 2374 1333.8 2364.4 1341.8C2354.8 1349.9 2347.2 1359.8 2341.6 1371.6C2336 1383.4 2333.2 1397.2 2333.2 1412.8C2333.2 1427.2 2335.4 1440.7 2339.7 1453.3C2344 1465.9 2351.4 1477.5 2361.7 1488L2361.8 1488.1C2369.1 1495.1 2377 1501.5 2385.6 1507.2C2394.2 1512.9 2405.9 1520.1 2420.7 1528.9C2435.5 1537.7 2447.3 1545.3 2456.2 1551.9C2465.1 1558.5 2471.8 1565.3 2476.5 1572.6C2481.2 1579.9 2483.5 1588.7 2483.5 1599C2483.5 1625.7 2471.9 1639 2448.6 1639C2421.9 1639 2407.9 1620.4 2406.7 1583.4C2406.6 1580.4 2403.7 1578 2400.2 1578C2386.7 1578 2355.7 1578 2342.2 1578C2338.6 1578 2335.7 1580.5 2335.7 1583.5V1685.8C2335.7 1687.3 2336.4 1688.6 2337.6 1689.7C2338.8 1690.7 2340.5 1691.3 2342.2 1691.3H2390.9C2391.6 1691.3 2392.4 1691.1 2392.9 1690.6C2393.4 1690.2 2393.7 1689.5 2393.7 1688.9C2393.7 1687.2 2394.8 1685.6 2396.6 1684.9C2398.4 1684.2 2400.5 1684.3 2402.1 1685.3C2415.5 1693.9 2434.5 1698.2 2459.1 1698.2C2474.6 1698.2 2488.2 1696.1 2499.9 1691.9C2511.6 1687.7 2521.5 1681.9 2529.8 1674.6C2538 1667.3 2544.7 1658.9 2549.8 1649.5C2554.9 1640.1 2558.6 1630.1 2560.8 1619.5C2562.9 1609.8 2564 1600.1 2564 1590.3C2564 1589.5 2563.9 1586.2 2563.8 1580.5C2563.7 1574.8 2562.4 1567.1 2559.9 1557.3C2555.1 1539 2546.1 1523.4 2533.1 1510.3C2520 1497.2 2503.1 1485.1 2482.5 1473.8C2461.8 1462.5 2447.1 1454 2438.2 1448.3C2429.3 1442.6 2422.5 1436.4 2417.5 1429.8C2412.5 1423.2 2410.1 1415.2 2410.1 1406C2410.1 1395.3 2413.4 1386.7 2419.9 1380.2C2426.4 1373.7 2435.4 1370.5 2446.7 1370.5C2472.7 1370.5 2485.8 1385.9 2485.8 1416.6V1420.8C2485.8 1423.8 2488.7 1426.3 2492.3 1426.3H2549.1C2550.8 1426.3 2552.5 1425.7 2553.7 1424.7C2554.9 1423.7 2555.6 1422.3 2555.6 1420.8V1329.6C2555.6 1328.1 2554.9 1326.8 2553.7 1325.7C2552.5 1324.7 2550.8 1324.1 2549.1 1324.1H2500.9C2499.8 1324.1 2498.8 1324.9 2498.8 1325.9C2498.8 1327.7 2497.6 1329.3 2495.7 1330.1C2493.8 1330.9 2491.5 1330.7 2489.9 1329.6C2488.7 1328.7 2487.4 1328 2486.1 1327.2C2481.5 1324.6 2475.2 1322.3 2467.2 1320.3C2459.2 1318.3 2449.1 1317.3 2436.9 1317.3C2423.2 1317.5 2410.1 1319.5 2397.6 1323.6Z" fill="white"/>
<path d="M2447.8 2022.1C2447.8 2020.6 2448.5 2019.3 2449.7 2018.2C2450.9 2017.2 2452.6 2016.6 2454.3 2016.6H2461C2480.6 2016.6 2494.8 2021.7 2503.5 2032C2512.2 2042.3 2516.6 2057.7 2516.6 2078.2C2516.6 2093.7 2514.9 2105.5 2511.5 2113.7C2508.1 2121.8 2502.4 2127.4 2494.3 2130.5C2486.2 2133.5 2475.1 2135 2461 2135H2454.3C2452.6 2135 2450.9 2134.4 2449.7 2133.4C2448.5 2132.4 2447.8 2131 2447.8 2129.5V2022.1ZM2447.8 1856.5C2447.8 1853.6 2450.6 1851.3 2454 1851.3C2473.6 1851.3 2487.5 1855.7 2495.6 1864.4C2503.7 1873.1 2507.8 1887.5 2507.8 1907.4C2507.8 1925.8 2503.7 1938.8 2495.5 1946.5C2487.3 1954.2 2473.5 1958 2454.1 1958C2452.5 1958 2450.9 1957.4 2449.7 1956.5C2448.5 1955.5 2447.9 1954.2 2447.9 1952.8L2447.8 1856.5ZM2337.2 1797.6C2333.6 1797.6 2330.7 1800.1 2330.7 1803.1V1836.2C2330.7 1837.7 2331.4 1839 2332.6 1840.1C2333.8 1841.1 2335.5 1841.7 2337.2 1841.7H2343.5C2352.5 1841.7 2357 1845.8 2357 1854V2135.4C2357 2143.6 2352.5 2147.7 2343.5 2147.7H2337.2C2335.5 2147.7 2333.8 2148.3 2332.6 2149.3C2331.4 2150.3 2330.7 2151.7 2330.7 2153.2V2186.3C2330.7 2187.8 2331.4 2189.1 2332.6 2190.2C2333.8 2191.2 2335.5 2191.8 2337.2 2191.8H2501.8C2522.1 2191.8 2538.9 2189.3 2552.3 2184.1C2565.7 2179 2576.3 2171.6 2584.1 2162C2592 2152.4 2597.5 2140.7 2600.8 2127C2604.1 2113.3 2605.7 2097.9 2605.7 2080.7C2605.7 2061.5 2603.3 2044.9 2598.6 2030.9C2593.9 2016.9 2586.2 2005.7 2575.6 1997.3C2569.4 1992.4 2562.1 1988.5 2553.6 1985.7C2551.3 1984.9 2549.7 1983 2549.6 1980.9C2549.5 1978.8 2550.9 1976.8 2553.1 1975.9C2559.6 1973.2 2565.1 1970 2569.9 1966C2578.8 1958.5 2585.1 1948.8 2588.8 1936.7C2592.5 1924.6 2594.4 1910.2 2594.4 1893.6C2594.4 1876.9 2592.8 1861.9 2589.4 1849.8C2586.1 1837.7 2580.6 1827.7 2572.9 1820C2565.2 1812.3 2554.8 1806.6 2541.6 1803C2528.4 1799.4 2511.9 1797.6 2492.1 1797.6C2491.3 1797.5 2367.3 1797.6 2337.2 1797.6ZM2740.8 1863.8C2740.8 1862.3 2741.5 1861 2742.7 1859.9C2743.9 1858.9 2745.6 1858.3 2747.3 1858.3H2754C2773.6 1858.3 2787.5 1862.8 2795.7 1871.9C2803.7 1880.9 2807.7 1895.4 2807.8 1915.4V1915.5C2807.7 1935.6 2803.7 1950.2 2795.7 1959.2C2787.6 1968.3 2773.6 1972.8 2754 1972.8H2747.3C2745.6 1972.8 2743.9 1972.2 2742.7 1971.2C2741.5 1970.2 2740.8 1968.8 2740.8 1967.3V1863.8ZM2630.2 1797.5C2628.5 1797.5 2626.8 1798.1 2625.6 1799.1C2624.4 1800.1 2623.7 1801.5 2623.7 1803V1836.1C2623.7 1837.6 2624.4 1838.9 2625.6 1840C2626.8 1841 2628.5 1841.6 2630.2 1841.6H2639C2646.3 1841.6 2650 1845.7 2650 1853.9V2135.4C2650 2143.6 2646.2 2147.7 2638.7 2147.7H2630.2C2628.5 2147.7 2626.8 2148.3 2625.6 2149.3C2624.4 2150.3 2623.7 2151.7 2623.7 2153.2V2186.3C2623.7 2187.8 2624.4 2189.1 2625.6 2190.2C2626.8 2191.2 2628.5 2191.8 2630.2 2191.8H2760.7C2762.4 2191.8 2764.1 2191.2 2765.3 2190.2C2766.5 2189.2 2767.2 2187.8 2767.2 2186.3V2153.2C2767.2 2151.7 2766.5 2150.4 2765.3 2149.3C2764.1 2148.3 2762.4 2147.7 2760.7 2147.7H2752.2C2744.7 2147.7 2740.9 2143.6 2740.9 2135.4V2040.5C2740.9 2039 2741.6 2037.7 2742.8 2036.6C2744 2035.6 2745.7 2035 2747.4 2035H2752.1C2754.9 2035 2757.4 2036.5 2758.3 2038.7C2765.4 2056.7 2795.8 2133 2796.6 2135.1V2135.2C2797.7 2138.2 2798.3 2140.7 2798.3 2142.6C2798.3 2146 2796.5 2147.7 2792.9 2147.7H2788.3C2786.6 2147.7 2784.9 2148.3 2783.7 2149.3C2782.5 2150.3 2781.8 2151.7 2781.8 2153.2V2186.3C2781.8 2187.8 2782.5 2189.1 2783.7 2190.2C2784.9 2191.2 2786.6 2191.8 2788.3 2191.8H2912C2913.7 2191.8 2915.4 2191.2 2916.6 2190.2C2917.8 2189.2 2918.5 2187.8 2918.5 2186.3V2153.2C2918.5 2151.7 2917.8 2150.4 2916.6 2149.3C2915.4 2148.3 2913.7 2147.7 2912 2147.7H2906.6C2897 2147.7 2890.7 2143.6 2887.6 2135.5C2887.6 2135.4 2887.5 2135.4 2887.5 2135.3C2886.2 2132.3 2849.2 2046.8 2840 2025.5C2838.9 2022.8 2840.3 2019.9 2843.3 2018.7C2877.1 2004.6 2894 1970.5 2894 1916.4C2894 1837.2 2855 1797.6 2777.1 1797.6L2630.2 1797.5ZM3097.5 1797.5C3095.8 1797.5 3094.1 1798.1 3092.9 1799.1C3091.7 1800.1 3091 1801.5 3091 1803V1836.1C3091 1837.6 3091.7 1838.9 3092.9 1840C3094.1 1841 3095.8 1841.6 3097.5 1841.6H3100.3C3107.7 1841.6 3111.5 1845.6 3111.6 1853.6V2097.9C3111.6 2103 3110.8 2108.6 3109.2 2114.6C3107.6 2120.6 3104.4 2125.7 3099.5 2129.9C3094.6 2134.1 3087.4 2136.3 3077.9 2136.6C3077.7 2136.6 3077.6 2136.6 3077.4 2136.6C3068 2136.3 3060.9 2134.1 3055.9 2129.9C3050.9 2125.7 3047.7 2120.6 3046.1 2114.6C3044.6 2108.6 3043.8 2103 3043.8 2097.9V1853.7C3043.8 1845.7 3047.6 1841.7 3055.1 1841.7H3057.9C3061.5 1841.7 3064.4 1839.2 3064.4 1836.2V1803C3064.4 1801.5 3063.7 1800.2 3062.5 1799.1C3061.3 1798.1 3059.6 1797.5 3057.9 1797.5H2928.7C2927 1797.5 2925.3 1798.1 2924.1 1799.1C2922.9 1800.1 2922.2 1801.5 2922.2 1803V1836.1C2922.2 1837.6 2922.9 1838.9 2924.1 1840C2925.3 1841 2927 1841.6 2928.7 1841.6H2937.2C2944.7 1841.6 2948.5 1845.7 2948.5 1853.8C2948.5 1853.8 2948.7 2048.6 2948.7 2049C2948.7 2066.9 2949.1 2083.6 2949.9 2099C2950.7 2114.5 2953.1 2128.4 2957 2140.8C2961 2153.2 2967.5 2163.8 2976.6 2172.6C2985.7 2181.4 2998.4 2188.1 3014.7 2192.9C3014.7 2192.9 3014.7 2192.9 3014.8 2192.9C3030.9 2197.7 3051.8 2200.1 3077.6 2200.1H3077.9C3103.6 2200.1 3124.6 2197.7 3140.8 2192.9C3157 2188.2 3169.7 2181.4 3178.8 2172.6C3187.9 2163.8 3194.5 2153.2 3198.5 2140.8C3202.5 2128.4 3204.8 2114.4 3205.6 2099C3206.4 2083.5 3206.8 2066.9 3206.8 2049V1853.8C3206.8 1845.7 3210.6 1841.6 3218.3 1841.6H3226.7C3228.4 1841.6 3230.1 1841 3231.3 1840C3232.5 1839 3233.2 1837.6 3233.2 1836.1V1803C3233.2 1801.5 3232.5 1800.2 3231.3 1799.1C3230.1 1798.1 3228.4 1797.5 3226.7 1797.5H3097.5ZM3265.1 1797.6C3261.5 1797.6 3258.6 1800.1 3258.6 1803.1V1836.2C3258.6 1837.7 3259.3 1839 3260.5 1840.1C3261.7 1841.1 3263.4 1841.7 3265.1 1841.7H3271.4C3280.4 1841.7 3284.9 1845.8 3284.9 1854V2135.4C3284.9 2143.6 3280.4 2147.7 3271.4 2147.7H3265.1C3263.4 2147.7 3261.7 2148.3 3260.5 2149.3C3259.3 2150.3 3258.6 2151.7 3258.6 2153.2V2186.3C3258.6 2189.3 3261.5 2191.8 3265.1 2191.8H3508.4C3512 2191.8 3514.9 2189.3 3514.9 2186.3V2087.7C3514.9 2084.7 3512 2082.2 3508.4 2082.2H3453C3451.3 2082.2 3449.6 2082.8 3448.4 2083.8C3447.2 2084.8 3446.5 2086.2 3446.5 2087.7V2122.6C3446.5 2132.9 3441 2138 3430.1 2138H3382.4C3378.8 2138 3375.9 2135.5 3375.9 2132.5V2023.2C3375.9 2020.2 3378.8 2017.7 3382.4 2017.7H3445.3C3447 2017.7 3448.7 2017.1 3449.9 2016.1C3451.1 2015.1 3451.8 2013.7 3451.8 2012.2V1965.4C3451.8 1963.9 3451.1 1962.6 3449.9 1961.5C3448.7 1960.5 3447 1959.9 3445.3 1959.9H3382.4C3378.8 1959.9 3375.9 1957.4 3375.9 1954.4V1856.8C3375.9 1853.8 3378.8 1851.3 3382.4 1851.3H3433.2C3445.4 1851.3 3451.5 1856.2 3451.5 1866V1898.3C3451.5 1899.8 3452.2 1901.1 3453.4 1902.2C3454.6 1903.2 3456.3 1903.8 3458 1903.8H3508.5C3510.2 1903.8 3511.9 1903.2 3513.1 1902.2C3514.3 1901.2 3515 1899.8 3515 1898.3V1803C3515 1801.5 3514.3 1800.2 3513.1 1799.1C3511.9 1798.1 3510.2 1797.5 3508.5 1797.5C3472.7 1797.4 3300.9 1797.5 3265.1 1797.6ZM3728.9 1797.5C3727.2 1797.5 3725.5 1798.1 3724.3 1799.1C3723.1 1800.1 3722.4 1801.5 3722.4 1803V1836.1C3722.4 1837.6 3723.1 1838.9 3724.3 1840C3725.5 1841 3727.2 1841.6 3728.9 1841.6H3737.3C3743.3 1841.7 3746.3 1844.4 3746.3 1849.8C3746.3 1851 3746.1 1852.3 3745.8 1853.8V1853.9C3745.4 1855.9 3724.6 1964.8 3713.8 2021.6C3713.3 2024.3 3710.6 2026.2 3707.4 2026.2C3704.2 2026.2 3701.5 2024.2 3701 2021.6C3690.1 1964.8 3669.2 1855.7 3668.9 1853.9C3668.9 1853.9 3668.9 1853.9 3668.9 1853.8C3668.6 1852.3 3668.4 1851 3668.4 1849.8C3668.4 1844.4 3671.4 1841.7 3677.4 1841.6H3685.9C3687.6 1841.6 3689.3 1841 3690.5 1840C3691.7 1839 3692.4 1837.6 3692.4 1836.1V1803C3692.4 1801.5 3691.7 1800.2 3690.5 1799.1C3689.3 1798.1 3687.6 1797.5 3685.9 1797.5H3545.4C3543.7 1797.5 3542 1798.1 3540.8 1799.1C3539.6 1800.1 3538.9 1801.5 3538.9 1803V1836.1C3538.9 1837.6 3539.6 1838.9 3540.8 1840C3542 1841 3543.7 1841.6 3545.4 1841.6H3550.8C3562.5 1841.6 3569.3 1845.7 3571.2 1853.9C3571.2 1854 3644.1 2147.9 3654 2187.4C3654.6 2189.9 3657.3 2191.8 3660.4 2191.8H3754.6C3757.7 2191.8 3760.4 2190 3761 2187.4C3770.8 2147.9 3843.7 1854 3843.8 1853.9C3845.8 1845.7 3852.6 1841.6 3864.3 1841.6H3869.7C3873.3 1841.6 3876.2 1839.1 3876.2 1836.1V1803C3876.2 1801.5 3875.5 1800.2 3874.3 1799.1C3873.1 1798.1 3871.4 1797.5 3869.7 1797.5H3728.9Z" fill="white"/>
<path d="M3497.6 1535.5C3491 1544.3 3485.4 1550.6 3480.8 1554.4C3476.2 1558.2 3472.4 1560.1 3469.4 1560.1C3467.7 1560.1 3465.9 1558.9 3463.8 1556.4C3461.8 1553.9 3460.1 1550 3459 1544.7C3458.3 1541.5 3457.9 1537.8 3457.9 1533.4C3457.9 1529 3458.4 1524.3 3459.5 1519.2C3460.6 1514.1 3462.1 1508.8 3464.2 1503.4C3466.3 1497.9 3469.1 1492.5 3472.6 1487.2C3474.9 1483.3 3476.6 1480.1 3477.6 1477.7C3478.7 1475.2 3479.3 1473.3 3479.6 1471.9C3479.8 1470.5 3479.8 1469.6 3479.4 1469.1C3479 1468.6 3478.6 1468.3 3478.1 1468.3C3477.6 1468.3 3476.7 1468.8 3475.5 1469.7C3474.3 1470.6 3472.4 1472.6 3469.9 1475.6C3467.4 1478.6 3464 1482.9 3459.9 1488.5C3455.7 1494.1 3450.5 1501.7 3444.2 1511.1C3442.2 1514.1 3440.4 1517 3438.8 1519.7C3437.2 1522.4 3435.6 1525.3 3434.1 1528.5C3432.5 1531.7 3430.9 1535.4 3429.3 1539.6C3427.7 1543.8 3425.8 1549 3423.7 1555C3423.4 1555.6 3423 1556 3422.6 1556.2C3422.2 1556.4 3421.7 1556.5 3421.2 1556.6C3420.4 1556.7 3419.6 1556.4 3418.8 1555.5C3418.1 1554.7 3417.4 1553.5 3416.9 1552.1C3416.4 1550.7 3416 1549.1 3415.7 1547.3C3415.5 1545.5 3415.4 1543.7 3415.6 1541.9C3415.9 1540.2 3416.3 1538.4 3416.9 1536.4C3417.4 1534.4 3418.4 1531.9 3419.7 1529C3420.6 1526.8 3421.7 1524.4 3422.9 1521.7C3424 1519 3425.2 1516.2 3426.4 1513.4C3427.5 1510.5 3428.6 1507.6 3429.6 1504.8C3430.5 1502 3431.3 1499.3 3431.8 1496.8C3433.5 1489.5 3434.7 1483.6 3435.5 1479.4C3436.3 1475.2 3436.7 1471.9 3436.7 1469.8C3436.7 1467.7 3436.4 1466.3 3435.7 1465.6C3435 1465 3434.2 1464.6 3433.1 1464.5C3432.2 1464.4 3430.6 1465.5 3428.3 1467.7C3426 1469.9 3422.8 1473.8 3418.6 1479.5C3416.8 1482 3414.7 1485.3 3412.4 1489.2C3410 1493.1 3407.6 1497.7 3405.1 1502.7C3402.6 1507.8 3400 1513.4 3397.4 1519.5C3394.8 1525.6 3392.4 1532 3390.2 1538.7C3389.7 1541 3389.2 1543.3 3388.9 1545.5C3388.5 1547.7 3388.5 1549.9 3388.7 1551.9C3388.8 1552.9 3388.8 1553.4 3388.5 1553.7C3388.3 1553.9 3387.9 1554 3387.2 1553.9C3385.9 1553.8 3384.5 1552.8 3382.9 1551C3381.3 1549.2 3380.1 1547 3379.5 1544.6C3379.3 1544.2 3379.2 1543.8 3379.2 1543.4C3379.2 1543 3379.3 1542.6 3379.4 1542.1C3383.2 1533.5 3386.2 1525 3388.5 1516.7C3390.8 1508.4 3392.5 1500.7 3393.7 1493.9C3394.8 1487 3395.5 1481.1 3395.6 1476.2C3395.7 1471.3 3395.4 1467.9 3394.8 1465.9C3394 1463.7 3392.7 1462 3391 1460.8C3389.3 1459.6 3388 1459 3387.1 1459C3385.6 1458.9 3383.2 1459.5 3379.9 1460.9C3376.6 1462.3 3372.2 1465.1 3366.7 1469.4C3362.1 1473.1 3358.6 1476.1 3356.1 1478.5C3353.7 1480.9 3351.6 1482.2 3349.8 1482.4C3349.2 1482.4 3348.7 1482.3 3348.3 1482C3347.9 1481.8 3347.6 1481.1 3347.4 1480.2L3346.9 1478.9C3346.6 1478.3 3346.5 1477.7 3346.5 1477.3C3346.6 1476.8 3346.7 1475.9 3347.1 1474.5C3347.1 1473.5 3347.5 1472.5 3348.2 1471.2C3348.9 1469.9 3349.8 1468.7 3350.9 1467.5C3352 1466.3 3353.1 1465.1 3354.3 1464C3355.5 1462.9 3356.6 1462 3357.5 1461.4C3358 1461.1 3358.4 1461.1 3358.5 1461.5C3358.6 1461.9 3358.5 1462.3 3357.9 1462.8C3356 1464.6 3354.8 1466.1 3354.2 1467.3C3353.6 1468.5 3353.4 1469.7 3353.5 1470.8C3360.8 1465.2 3367.7 1461 3374 1458C3380.3 1455 3385 1453.4 3387.9 1453.2C3389 1453.2 3390.1 1453.8 3391.4 1454.8C3392.7 1455.9 3394 1457.2 3395.3 1458.7C3396.6 1460.2 3397.7 1461.8 3398.7 1463.4C3399.7 1465 3400.4 1466.4 3400.8 1467.4C3401.4 1470.3 3401 1476.2 3399.7 1484.9C3399.2 1489.1 3398.3 1494.1 3397.1 1499.8C3395.9 1505.5 3394.3 1512.1 3392.3 1519.4C3393 1516.8 3393.9 1514.2 3394.8 1511.6C3395.8 1509 3396.7 1506.6 3397.6 1504.1C3401.1 1496.2 3404.7 1489.2 3408.4 1483.2C3412.1 1477.1 3415.3 1472.5 3417.9 1469.4C3420.8 1466.1 3423.8 1463.2 3426.6 1461C3429.5 1458.7 3431.5 1457.6 3432.7 1457.6C3434.4 1457.6 3436.2 1458.5 3438.1 1460.4C3440.1 1462.2 3441.4 1464.4 3442.1 1466.8C3442.3 1467.6 3442.3 1469.4 3442 1472.1C3441.8 1474.8 3441.2 1478.2 3440.3 1482.4C3439.4 1486.6 3438.3 1491.4 3436.8 1496.7C3435.4 1502.1 3433.7 1507.7 3431.7 1513.7C3429.5 1520.1 3426.9 1526.9 3423.8 1534.2C3425.2 1531.5 3426.6 1528.7 3428.2 1525.9C3429.8 1523.1 3431.4 1520.2 3433.1 1517.4C3436.4 1512 3439.7 1506.8 3443.3 1501.6C3446.8 1496.4 3450.4 1491.4 3453.9 1486.7C3457.5 1482 3461 1477.5 3464.5 1473.4C3468 1469.2 3471.5 1465.5 3474.8 1462.1C3475.4 1461.4 3476.4 1461 3477.6 1461C3478.2 1461 3479 1461.4 3480 1462.1C3480.9 1462.8 3481.9 1463.7 3482.8 1464.6C3483.8 1465.6 3484.6 1466.5 3485.2 1467.5C3485.9 1468.5 3486.3 1469.2 3486.4 1469.6C3486.7 1470.7 3486.5 1472 3485.8 1473.7C3485.1 1475.4 3483.6 1478.1 3481.2 1481.7C3477.6 1487.6 3474.6 1493.6 3472 1499.7C3469.4 1505.8 3467.4 1511.7 3465.9 1517.3C3464.4 1523 3463.4 1528.3 3463.1 1533.2C3462.7 1538.1 3463 1542.3 3463.8 1545.8C3465.6 1552.3 3468.5 1554.4 3472.5 1552.1C3474.4 1550.7 3476.2 1549.4 3477.8 1548.2C3479.4 1546.9 3481.1 1545.5 3482.8 1544C3484.5 1542.4 3486.3 1540.6 3488.4 1538.5C3490.4 1536.4 3492.9 1533.8 3495.7 1530.8L3497.6 1535.5ZM3535 1536C3530.7 1542.7 3526.8 1547.6 3523.2 1550.5C3518.7 1554.3 3514.7 1555.9 3511.2 1555.3C3507.7 1554.7 3504.8 1552.5 3502.4 1548.8C3499.7 1544.3 3498 1539.5 3497.4 1534.6C3496.8 1529.6 3497.8 1524.3 3500.4 1518.6C3506 1507.4 3511.8 1501.7 3518.1 1501.6C3521.4 1501.6 3522.5 1502.6 3521.1 1504.6C3519.5 1506.6 3517.8 1508.6 3516.1 1510.6C3514.3 1512.6 3512.2 1514.7 3509.8 1516.7C3507.6 1518.6 3506.1 1520.7 3505.5 1523C3504.8 1525.3 3504.4 1528.4 3504.2 1532.3C3504.1 1534.5 3504.3 1536.6 3504.7 1538.6C3505.1 1540.6 3505.8 1542.3 3506.6 1543.9C3507.4 1545.4 3508.4 1546.6 3509.6 1547.4C3510.8 1548.2 3512 1548.4 3513.2 1548.1C3514.6 1547.8 3516 1547.3 3517.4 1546.7C3518.9 1546.1 3520.4 1545.1 3522 1543.8C3523.6 1542.5 3525.5 1540.8 3527.5 1538.6C3529.5 1536.5 3531.8 1533.7 3534.3 1530.5L3535 1536ZM3521.9 1491.4C3521.9 1489.2 3522.5 1486.9 3523.6 1484.5C3524.7 1482.1 3526.4 1480.5 3528.5 1479.8C3528.9 1479.7 3529.5 1479.9 3530.1 1480.5C3530.7 1481.1 3531.2 1481.9 3531.7 1483C3532.1 1484.1 3532.3 1485.4 3532.2 1487C3532.1 1488.6 3531.5 1490.3 3530.5 1492C3529.6 1493.5 3528.6 1494.5 3527.6 1495.1C3526.6 1495.7 3525.7 1495.9 3524.8 1495.7C3524 1495.5 3523.3 1495.1 3522.8 1494.4C3522.2 1493.6 3521.9 1492.6 3521.9 1491.4ZM3555.3 1507.9C3553.5 1508.4 3551.6 1509.8 3549.4 1511.9C3547.3 1514.1 3545.2 1516.2 3543.3 1518.3C3541.6 1520.1 3540.5 1521.1 3540.1 1521.3C3539.6 1521.5 3539.3 1520.9 3539.1 1519.4C3539 1518.7 3539.3 1517.6 3539.9 1516.2C3540.5 1514.8 3541.4 1513.2 3542.6 1511.5C3543.7 1509.8 3545.1 1508 3546.6 1506.2C3548.1 1504.4 3549.7 1502.7 3551.2 1501.2C3552.8 1499.5 3553.9 1498.4 3554.6 1498C3555.3 1497.5 3555.9 1497.4 3556.6 1497.6C3557.4 1497.8 3558.2 1498.3 3558.8 1499C3559.4 1499.7 3560 1501 3560.5 1502.7C3561 1504.4 3561.5 1506.8 3561.8 1509.9C3562.2 1512.9 3562.5 1516.9 3562.8 1521.7C3566 1517.7 3568.6 1514.4 3570.8 1511.6C3573 1508.9 3574.9 1506.7 3576.4 1505.1C3577.9 1503.5 3579.1 1502.3 3580 1501.6C3580.9 1500.9 3581.6 1500.6 3582.3 1500.6C3583.8 1500.6 3584.6 1501.3 3584.7 1502.6C3584.8 1503.4 3584.7 1504.4 3584.4 1505.4C3584.1 1506.5 3583.2 1508.2 3581.7 1510.6C3580.1 1512.6 3579 1513.9 3578.2 1514.4C3577.5 1514.9 3576.5 1514.9 3575.4 1514.4L3563.9 1528.9C3564.2 1531 3564.6 1533.3 3565 1535.8C3565.4 1538.3 3565.8 1540.3 3566.1 1541.8C3566.6 1545 3567.4 1546.8 3568.3 1547.5C3569.3 1548.1 3570.6 1547.7 3572.2 1546.4C3573.8 1545.1 3575.1 1544 3576.2 1542.9C3577.3 1541.8 3578.3 1540.8 3579.3 1539.6C3580.2 1538.5 3581.3 1537.1 3582.4 1535.6C3583.5 1534.1 3584.8 1532.2 3586.4 1530L3587.2 1535.4C3582.9 1542.6 3579.4 1547.8 3576.8 1550.8C3574.2 1553.8 3572 1555.4 3570.2 1555.6C3566.5 1555.9 3564.1 1554.5 3562.8 1551.4C3562.3 1549.9 3561.7 1548.1 3561.2 1545.9C3560.6 1543.7 3560.1 1540.6 3559.6 1536.6C3556.2 1541 3553.3 1544.8 3550.8 1548.1C3548.3 1551.4 3546.3 1553.6 3545 1554.7C3543 1556.4 3541.8 1556.1 3541.5 1553.9C3541 1551.8 3541.7 1549 3543.5 1545.4C3544.8 1542.6 3545.8 1541 3546.7 1540.8C3547.5 1540.6 3548.3 1540.7 3548.9 1541.1L3558.3 1529.5L3555.3 1507.9ZM3627.5 1536C3623.2 1542.7 3619.3 1547.6 3615.7 1550.5C3611.2 1554.3 3607.2 1555.9 3603.7 1555.3C3600.2 1554.7 3597.3 1552.5 3594.9 1548.8C3592.2 1544.3 3590.5 1539.5 3589.9 1534.6C3589.3 1529.6 3590.3 1524.3 3592.9 1518.6C3598.5 1507.4 3604.3 1501.7 3610.6 1501.6C3613.9 1501.6 3615 1502.6 3613.6 1504.6C3612 1506.6 3610.3 1508.6 3608.6 1510.6C3606.8 1512.6 3604.7 1514.7 3602.3 1516.7C3600.1 1518.6 3598.6 1520.7 3598 1523C3597.3 1525.3 3596.9 1528.4 3596.7 1532.3C3596.6 1534.5 3596.8 1536.6 3597.2 1538.6C3597.6 1540.6 3598.3 1542.3 3599.1 1543.9C3599.9 1545.4 3600.9 1546.6 3602.1 1547.4C3603.3 1548.2 3604.5 1548.4 3605.7 1548.1C3607.1 1547.8 3608.5 1547.3 3609.9 1546.7C3611.4 1546.1 3612.9 1545.1 3614.5 1543.8C3616.1 1542.5 3618 1540.8 3620 1538.6C3622 1536.5 3624.3 1533.7 3626.8 1530.5L3627.5 1536ZM3614.5 1491.4C3614.5 1489.2 3615.1 1486.9 3616.2 1484.5C3617.3 1482.1 3619 1480.5 3621.1 1479.8C3621.5 1479.7 3622.1 1479.9 3622.7 1480.5C3623.3 1481.1 3623.8 1481.9 3624.3 1483C3624.7 1484.1 3624.9 1485.4 3624.8 1487C3624.7 1488.6 3624.1 1490.3 3623.1 1492C3622.2 1493.5 3621.2 1494.5 3620.2 1495.1C3619.2 1495.7 3618.3 1495.9 3617.4 1495.7C3616.6 1495.5 3615.9 1495.1 3615.4 1494.4C3614.7 1493.6 3614.5 1492.6 3614.5 1491.4ZM3679.7 1513.6C3676.4 1518.1 3673.8 1522.6 3672.1 1526.9C3670.4 1531.3 3669.1 1536.1 3668.2 1541.5C3667.7 1544.3 3667.9 1546.2 3668.8 1547.3C3669.7 1548.3 3671 1548 3672.8 1546.4C3675.5 1544.3 3678.1 1541.9 3680.5 1539.3C3682.9 1536.7 3686 1533.6 3690 1530L3691.3 1535.4C3688.5 1539.3 3685.9 1542.5 3683.7 1545.1C3681.5 1547.7 3679.5 1549.7 3677.7 1551.2C3675.9 1552.7 3674.4 1553.8 3673.1 1554.5C3671.8 1555.2 3670.7 1555.6 3669.7 1555.7C3668.2 1555.9 3666.9 1555.4 3665.5 1554.1C3664.2 1552.8 3663.3 1550.8 3662.7 1548C3662.3 1545.9 3662.3 1543.2 3662.6 1540C3663 1536.7 3664.1 1533 3666.1 1528.8C3667.7 1525.2 3669.2 1521.9 3670.7 1518.8C3672.2 1515.7 3673.8 1512 3675.6 1507.7C3674.3 1508.3 3672.6 1509.7 3670.5 1511.9C3668.4 1514.1 3666 1516.7 3663.6 1519.9C3661.1 1523.1 3658.6 1526.8 3656 1530.9C3653.4 1535.1 3651.1 1539.5 3649.2 1544.2C3648.1 1547.2 3647 1549.3 3646 1550.5C3645 1551.6 3644 1552.2 3642.8 1552.1C3641.3 1552 3639.9 1551 3638.6 1549.3C3637.2 1547.5 3636 1545.4 3635 1542.9C3633.9 1540.4 3633.1 1537.9 3632.5 1535.2C3631.9 1532.5 3631.6 1530.2 3631.7 1528.4C3632.1 1526.5 3632.9 1524.2 3634.1 1521.6C3635.6 1518.3 3636.9 1515.7 3638 1513.6C3639.1 1511.6 3640.1 1510 3641.1 1508.9C3642 1507.8 3643 1507 3643.9 1506.6C3644.9 1506.2 3645.9 1505.9 3647.1 1505.8C3649.5 1505.6 3650.6 1506 3650.5 1507.1C3650.3 1508.2 3649.4 1509.8 3647.6 1511.7C3644.2 1515.6 3641.8 1519.1 3640.2 1522.2C3638.6 1525.3 3638 1528.8 3638.5 1532.8C3639 1537.5 3640 1540.5 3641.3 1541.6C3642.6 1542.7 3643.9 1542.1 3645.2 1539.6C3646.8 1536.4 3648.2 1533.7 3649.4 1531.3C3650.7 1528.9 3651.9 1526.7 3653.2 1524.8C3654.5 1522.8 3655.7 1521 3657.1 1519.3C3658.4 1517.6 3659.9 1515.8 3661.6 1513.9C3664.5 1510.4 3667.4 1507.5 3670.2 1505.1C3673 1502.7 3675.3 1501.4 3677.2 1501.2C3677.6 1501.2 3678.1 1501.5 3678.7 1502.2C3679.3 1502.8 3679.8 1503.5 3680.3 1504.3C3680.8 1505.1 3681.2 1505.9 3681.6 1506.7C3682 1507.5 3682.2 1508.2 3682.3 1508.6C3682.2 1509.9 3681.4 1511.6 3679.7 1513.6ZM3734.5 1556.4C3732.4 1563.1 3730.3 1568.5 3728.2 1572.5C3726.1 1576.5 3724 1580 3721.9 1583.1C3715.2 1593.8 3711.6 1596.3 3711.2 1590.7C3711.1 1588.7 3711.3 1586.7 3711.8 1584.8C3712.3 1582.8 3713.2 1580.5 3714.5 1577.6C3716 1574.1 3718 1570.2 3720.7 1565.9C3723.4 1561.5 3726.9 1556.1 3731.3 1549.5C3732.1 1544.1 3732.8 1539 3733.3 1534.1C3733.8 1529.2 3734.3 1525.3 3734.6 1522.5C3729.2 1533.3 3724.3 1541 3719.6 1545.6C3715 1550.2 3710.9 1552.6 3707.5 1552.8C3705 1552.8 3701.8 1550.7 3698.1 1546.5C3694.9 1542.5 3692.7 1538.3 3691.3 1533.8C3689.9 1529.3 3690.3 1524.7 3692.6 1519.9C3694.1 1517.1 3696 1514.3 3698.4 1511.5C3700.8 1508.7 3703.3 1506.2 3706.1 1504C3708.8 1501.8 3711.6 1500 3714.4 1498.7C3717.2 1497.4 3719.9 1496.7 3722.3 1496.7C3726 1496.7 3727.6 1497.6 3727 1499.3C3726.4 1501 3723.3 1503.3 3717.6 1506C3715.7 1506.8 3713.8 1507.9 3711.8 1509.2C3709.8 1510.5 3708 1511.9 3706.3 1513.4C3704.6 1514.9 3703 1516.6 3701.6 1518.3C3700.2 1520 3699.1 1521.7 3698.4 1523.4C3697.3 1526.1 3696.9 1529 3697.5 1532C3698 1535 3699 1537.6 3700.5 1539.8C3702 1542 3703.7 1543.5 3705.8 1544.4C3707.8 1545.3 3709.9 1545 3711.9 1543.5C3715.1 1541.1 3718.1 1538 3721 1534.4C3723.9 1530.7 3726.1 1526.4 3727.6 1521.3C3728.5 1519.1 3729.5 1517.2 3730.5 1515.7C3731.5 1514.2 3732.4 1512.9 3733.3 1511.8C3734.4 1510.7 3735.4 1510 3736.4 1509.6C3737.4 1509.2 3738.3 1509.3 3739.1 1509.8C3739.9 1510.4 3740.5 1511.4 3740.9 1513C3741.3 1514.6 3741.5 1516.8 3741.4 1519.8C3741 1523.1 3740.5 1526.8 3740 1530.7C3739.5 1534.6 3738.7 1539.2 3737.8 1544.3L3752.3 1530.6L3753.7 1535.6L3734.5 1556.4ZM3373.5 1669C3371 1674 3369 1678.4 3367.7 1681.9C3366.3 1685.5 3365.5 1688.1 3365.3 1689.8C3365.2 1690.9 3364.8 1692.1 3364.1 1693.3C3363.4 1694.4 3362.6 1695.4 3361.8 1696.3C3360.5 1697.8 3359.5 1698.4 3358.8 1698.1C3358.1 1697.9 3357.5 1697.2 3357.2 1696.3C3356.8 1694.5 3357.5 1691.1 3359.4 1686C3361.3 1680.9 3364.2 1674.7 3368.2 1667.5C3364.9 1666.4 3362.6 1665.5 3361.6 1664.5C3360.5 1663.5 3360 1662.6 3360 1661.7C3359.8 1660.1 3360.2 1658.5 3361.2 1656.7C3362.2 1655 3363.6 1653.6 3365.5 1652.7C3366.2 1652.3 3367.4 1651.9 3368.9 1651.7C3370.4 1651.5 3373.2 1651.1 3377.2 1650.7C3379.4 1647.4 3381.4 1643.5 3383.3 1639.1C3385.2 1634.7 3386.9 1630.2 3388.3 1625.6C3389.8 1621 3391 1616.6 3392.1 1612.4C3393.2 1608.2 3393.9 1604.6 3394.5 1601.7C3388.6 1602 3383.7 1602.6 3379.7 1603.5C3375.7 1604.4 3371.7 1605.4 3367.7 1606.6C3364.7 1607.4 3362.2 1608.3 3360.5 1609.1C3358.7 1609.9 3357.3 1610.8 3356.3 1611.8C3355.2 1612.8 3354.5 1613.8 3354.2 1615C3353.8 1616.2 3353.5 1617.5 3353.3 1619C3353.1 1620.1 3354 1621.1 3356.1 1621.9C3358.2 1622.7 3362.1 1623.2 3367.7 1623.4C3370.1 1623.5 3372 1623.7 3373.3 1624C3374.6 1624.3 3375.5 1624.6 3376 1625C3376.5 1625.3 3376.6 1625.6 3376.2 1625.9C3375.9 1626.1 3375.3 1626.3 3374.3 1626.3C3371.9 1626.4 3369.7 1626.5 3367.7 1626.5C3365.7 1626.6 3363.8 1626.6 3362 1626.7C3360.2 1626.8 3358.5 1626.9 3356.8 1626.9C3355.1 1627 3353.3 1627 3351.4 1627.1C3350.1 1627.2 3349 1626.8 3348.1 1625.8C3347.1 1624.8 3346.7 1623.7 3346.8 1622.6C3347.1 1619.1 3347.9 1616 3349 1613.3C3350.1 1610.6 3352.1 1608.2 3354.8 1606.1C3357.5 1604.1 3361.1 1602.3 3365.6 1600.7C3370.1 1599.2 3375.9 1597.9 3383.1 1596.8C3390.2 1595.7 3397.1 1595.3 3403.7 1595.3C3410.3 1595.3 3416.3 1595.9 3421.7 1596.8C3427.2 1597.8 3432 1599.1 3436 1600.7C3440.1 1602.4 3443.3 1604.3 3445.6 1606.5C3448.4 1609.2 3450.4 1612.4 3451.5 1615.9C3452.6 1619.5 3453 1623.1 3452.5 1626.6C3452.1 1630.2 3450.9 1633.5 3449 1636.7C3447 1639.9 3444.4 1642.3 3440.9 1644.1C3434.6 1647.5 3426.4 1650 3416.3 1651.6C3406.2 1653.2 3394.3 1654.6 3380.6 1655.8C3373 1656.4 3368.5 1657.3 3367 1658.6C3365.5 1659.8 3366.3 1661.1 3369.4 1662.6C3378.2 1665.8 3386.9 1668.9 3395.3 1672.2C3403.8 1675.5 3411.4 1678.5 3418.2 1681.3C3425 1684.1 3430.8 1686.6 3435.5 1688.8C3440.2 1691 3443.3 1692.5 3444.8 1693.4C3447.7 1695.2 3449.1 1697.3 3448.9 1699.8C3448.8 1700.9 3448.4 1701.6 3447.8 1701.6C3447.2 1701.7 3445.5 1700.9 3442.9 1699.5C3440.8 1698.4 3438.8 1697.3 3436.9 1696.3C3435 1695.3 3432.8 1694.2 3430.4 1693C3427.9 1691.8 3424.9 1690.3 3421.4 1688.7C3417.8 1687 3413.3 1685 3407.9 1682.6L3373.5 1669ZM3396 1601.6C3396.5 1602.7 3396.9 1604.7 3397 1607.5C3397.2 1610.3 3396.9 1613.8 3396.2 1617.9C3395.5 1622.1 3394.2 1626.8 3392.4 1632.1C3390.6 1637.5 3387.9 1643.2 3384.4 1649.4C3392.4 1648.7 3399.4 1648 3405.4 1647.4C3411.4 1646.8 3416.7 1646 3421.3 1645C3425.9 1643.9 3429.8 1642.5 3433.3 1640.7C3436.7 1638.9 3439.8 1636.4 3442.7 1633.2C3444.4 1631.3 3445.5 1629 3445.9 1626.4C3446.4 1623.7 3446.1 1621 3445.3 1618.3C3444.4 1615.6 3442.9 1613 3440.7 1610.6C3438.5 1608.2 3435.6 1606.4 3431.9 1605.2C3426.2 1603.3 3420.3 1602 3413.9 1601.4C3407.7 1600.8 3401.7 1600.8 3396 1601.6ZM3467.2 1678C3468.3 1681.8 3469.9 1684.5 3472.1 1686.3C3474.3 1688 3477.4 1688.3 3481.4 1687.2C3484.7 1686.5 3488.4 1684.6 3492.2 1681.5C3496 1678.5 3500.6 1673.7 3506 1667.3L3506.6 1672C3501.6 1679.2 3496.8 1684.6 3492.2 1688.2C3487.6 1691.8 3482.8 1693.6 3477.8 1693.6C3473.4 1693.6 3469.7 1691.9 3466.6 1688.5C3463.6 1685.1 3461.5 1680.2 3460.3 1673.8C3459.7 1670.3 3459.9 1666.8 3460.9 1663.2C3461.9 1659.6 3463.5 1656.2 3465.6 1653C3467.7 1649.8 3470.3 1646.9 3473.3 1644.2C3476.3 1641.5 3479.5 1639.3 3483 1637.7C3487.7 1635.4 3491.9 1634.7 3495.5 1635.5C3499.1 1636.3 3501.1 1638.4 3501.6 1641.8C3502.1 1645.1 3501.4 1648.2 3499.6 1651.4C3497.7 1654.6 3494.4 1657.7 3489.7 1661C3488.6 1661.8 3487 1662.8 3485.1 1663.8C3483.1 1664.9 3481.1 1665.9 3478.9 1667C3476.7 1668.1 3474.5 1669.1 3472.2 1670.1C3469.9 1671.1 3468 1672 3466.3 1672.7L3467.2 1678ZM3466.1 1667.2C3474.6 1663.2 3481.1 1659.7 3485.5 1656.6C3489.9 1653.6 3492.7 1650.7 3493.8 1648.1C3494.8 1646.4 3495.3 1645 3495.3 1643.9C3495.4 1642.8 3495.1 1641.9 3494.7 1641.3C3494.3 1640.7 3493.5 1640.4 3492.6 1640.3C3491.6 1640.2 3490.6 1640.4 3489.6 1640.9C3486.3 1642.2 3483.2 1643.7 3480.4 1645.6C3477.6 1647.5 3475.2 1649.6 3473.1 1651.8C3471 1654.1 3469.4 1656.5 3468.1 1659.1C3466.8 1661.8 3466.2 1664.5 3466.1 1667.2ZM3553.7 1673.1C3551.3 1675.8 3549.3 1678.1 3547.6 1680C3546 1681.9 3544.4 1683.6 3542.8 1685C3540.7 1687.2 3538.6 1689.1 3536.5 1690.6C3534.4 1692.1 3532.3 1693.2 3530.2 1693.8C3528.1 1694.4 3526 1694.6 3523.9 1694.2C3521.8 1693.8 3519.7 1692.8 3517.6 1691.1C3515.7 1689.5 3514 1687.4 3512.4 1684.8C3510.8 1682.2 3509.6 1679.4 3508.6 1676.6C3507.6 1673.8 3507.1 1671 3507 1668.3C3506.8 1665.6 3507.2 1663.3 3508.2 1661.5C3510.1 1658 3512.4 1654.7 3515.1 1651.6C3517.8 1648.4 3520.6 1645.7 3523.4 1643.2C3526.2 1640.7 3529 1638.8 3531.7 1637.3C3534.4 1635.8 3536.6 1635 3538.4 1634.9C3539.7 1634.9 3540.9 1635.2 3542 1635.8C3543.1 1636.4 3544.1 1637.3 3544.8 1638.4C3545.5 1639.5 3545.9 1641 3545.9 1642.7C3546 1644.4 3545.5 1646.4 3544.6 1648.8C3543.9 1650.3 3543.1 1651.6 3542.4 1653C3541.7 1654.3 3540.9 1655.5 3540 1656.7C3538.2 1658.8 3536.7 1659.9 3535.4 1660C3533.9 1660 3533.5 1659.4 3534.1 1658.3C3535.6 1655.6 3536.7 1653.2 3537.4 1651.1C3538.1 1649 3538.9 1646.6 3539.8 1643.9C3540.1 1642.8 3539.8 1642.3 3538.8 1642.2C3537.8 1642.1 3536.9 1642.3 3536 1642.8C3527.1 1647.8 3520.8 1653 3517.2 1658.3C3513.6 1663.6 3512.6 1668.6 3514.1 1673.4C3515.2 1677.2 3516.5 1680.2 3517.8 1682.6C3519.1 1685 3520.6 1686.5 3522.4 1687.2C3524.2 1687.9 3526.3 1687.9 3528.6 1687C3531 1686.1 3533.8 1684.3 3537.2 1681.7C3539.9 1679.4 3542.5 1677.1 3544.9 1674.9C3547.3 1672.7 3550 1670.4 3552.9 1668L3553.7 1673.1ZM3604.7 1672.3C3603.2 1673.9 3601.9 1675.1 3600.6 1676.2C3599.3 1677.2 3598.1 1678 3596.9 1678.6C3595.7 1679.2 3594.4 1679.6 3593.1 1679.7C3591.8 1679.9 3590.3 1679.9 3588.6 1679.8C3583 1687.7 3577.7 1691.6 3572.7 1691.6C3570.6 1691.6 3568.5 1691 3566.5 1690C3564.5 1688.9 3562.6 1687.4 3560.8 1685.4C3559.1 1683.4 3557.6 1681.2 3556.4 1678.6C3555.2 1676 3554.4 1673.1 3554 1670.1C3553.7 1667.7 3553.9 1665.1 3554.7 1662.2C3555.5 1659.4 3556.7 1656.6 3558.3 1653.9C3559.9 1651.2 3562 1648.6 3564.4 1646.1C3566.8 1643.6 3569.5 1641.5 3572.6 1639.7C3579.1 1635.9 3584.6 1635.2 3589 1637.5C3590.4 1638.1 3591.1 1638.9 3591.3 1639.8C3591.5 1640.7 3590.9 1641.4 3589.7 1641.9C3589.2 1643 3588.9 1643.9 3588.8 1644.9C3588.7 1645.8 3589.2 1646.5 3590.2 1646.8C3590.9 1647 3591.5 1648.1 3591.9 1650C3592.3 1651.9 3592.5 1654.1 3592.4 1656.7C3592.3 1659.3 3592 1662 3591.5 1664.9C3591 1667.8 3590.2 1670.3 3589.1 1672.6C3589.3 1672.9 3589.6 1673.2 3589.9 1673.4C3590.3 1673.7 3590.8 1674 3591.5 1674.2C3592.1 1674.3 3593.7 1673.8 3596.2 1672.7C3598.7 1671.6 3601.3 1669.9 3604.1 1667.4L3604.7 1672.3ZM3587.4 1641.7C3580.9 1642.3 3575.6 1644.2 3571.7 1647.3C3567.7 1650.4 3564.2 1655 3561.1 1660.9C3559.4 1664.1 3559 1667.3 3559.8 1670.8C3560.6 1674.3 3562 1677.2 3564.1 1679.6C3567.3 1683.3 3570.4 1685 3573.6 1684.8C3576.8 1684.6 3580.4 1681.6 3584.4 1675.8C3583.9 1675.2 3583.4 1674.2 3583.1 1672.7C3582.8 1671.3 3582.7 1669.2 3582.8 1666.6C3582.9 1663.9 3583.3 1660.6 3584 1656.5C3584.7 1652.7 3585.8 1647.7 3587.4 1641.7ZM3604.2 1668.2C3605.5 1666.5 3606.6 1664.5 3607.7 1662.3C3608.8 1660 3609.6 1657.9 3610.1 1655.8C3608.8 1655.3 3607.9 1654.6 3607.4 1653.8C3606.9 1653 3606.3 1651.7 3605.8 1649.9C3605.6 1648.8 3605.8 1647.3 3606.5 1645.6C3607.2 1643.9 3608.6 1641.7 3610.7 1639.2C3612.5 1637 3614 1635.4 3615.2 1634.5C3616.4 1633.5 3617.5 1633.7 3618.6 1634.8C3618.8 1636.1 3618.8 1637.4 3618.4 1638.9C3618.1 1640.4 3617.6 1641.8 3617 1643.1C3624.2 1642 3629.3 1641.2 3632.6 1640.9C3635.9 1640.6 3638 1640.6 3638.9 1640.9C3640.5 1641.4 3641.7 1642.4 3642.6 1643.7C3643.5 1645 3643.4 1646.7 3642.2 1648.8C3641.7 1649.4 3641.1 1650.4 3640.4 1651.7C3639.7 1653 3638.8 1654.2 3637.6 1655.4C3633.2 1660.1 3630.3 1664.5 3628.8 1668.6C3627.3 1672.7 3626.8 1676.3 3627.1 1679.3C3627.3 1681.4 3627.8 1682.9 3628.7 1683.8C3629.5 1684.7 3631 1684.4 3632.9 1682.9C3634.5 1681.8 3635.9 1680.6 3637.1 1679.5C3638.3 1678.4 3639.6 1677.2 3641 1676C3642.3 1674.8 3643.7 1673.5 3645.1 1672C3646.5 1670.5 3648.2 1668.8 3650.1 1667L3650.9 1672.2C3649 1674.5 3647.4 1676.5 3646 1678.3C3644.6 1680 3643.4 1681.6 3642.2 1682.9C3641.1 1684.2 3640 1685.4 3639 1686.4C3638 1687.4 3637 1688.3 3635.9 1689C3633.5 1690.5 3631.5 1691.2 3629.9 1691.2C3625.4 1691.2 3622.3 1687.4 3620.8 1679.7C3620.4 1676.4 3621.2 1672.1 3623.4 1666.8C3625.5 1661.4 3629.7 1654.8 3635.9 1646.9C3635 1647.1 3633.7 1647.3 3632.1 1647.6C3630.5 1647.8 3628.9 1648.1 3627.1 1648.4C3625.4 1648.6 3623.6 1648.9 3621.9 1649.2C3620.2 1649.5 3618.7 1649.7 3617.4 1649.9C3616.3 1654 3614.8 1658 3613.2 1661.9C3611.5 1665.8 3608.7 1669.6 3604.8 1673.2L3604 1668.2H3604.2ZM3687.4 1667.4C3684.7 1672.4 3682 1676.8 3679.5 1680.4C3677 1684 3674.9 1686.7 3673.4 1688.5C3671.3 1690.3 3670 1691.2 3669.5 1691.2C3668.5 1691.2 3667.3 1690.6 3665.6 1689.4C3664 1688.2 3662.3 1686.6 3660.6 1684.5C3658.9 1682.5 3657.3 1680.1 3655.7 1677.6C3654.2 1675 3653 1672.4 3652.3 1669.6C3651.2 1665.8 3651.4 1662 3653.2 1658.1C3654.9 1654.2 3657.3 1650.7 3660.4 1647.6C3663.4 1644.5 3666.7 1642 3670.3 1639.9C3673.9 1637.9 3676.9 1636.9 3679.4 1636.9C3680.7 1636.9 3682.2 1637.3 3683.9 1638C3685.6 1638.7 3687.4 1639.9 3689.2 1641.5C3690.3 1637.8 3691.2 1634.4 3692 1631.2C3692.8 1628 3693.6 1625.1 3694.4 1622.2C3695.2 1619.4 3696 1616.6 3696.8 1614C3697.6 1611.4 3698.6 1608.8 3699.8 1606.1C3700.8 1604.6 3701.4 1603.6 3701.8 1602.9C3702.2 1602.3 3702.6 1601.9 3703.1 1601.8C3703.9 1601.7 3704.7 1602 3705.5 1602.8C3706.2 1603.5 3706.5 1604.5 3706.3 1605.8C3706.3 1606.4 3706.2 1607.2 3706.1 1608.2C3705.9 1609.1 3705.5 1610.6 3704.9 1612.6C3704.3 1614.6 3703.4 1617.3 3702.1 1620.9C3700.9 1624.4 3699.3 1629.1 3697.3 1635C3696 1638.8 3695.1 1642.8 3694.4 1647C3693.7 1651.2 3693.3 1655.3 3693.1 1659.2C3692.9 1663.1 3693 1666.8 3693.3 1670.1C3693.6 1673.5 3694.1 1676.1 3694.7 1678.1C3695.8 1681.7 3696.8 1684 3697.6 1685.2C3698.4 1686.3 3699.6 1686.8 3701.1 1686.6C3704.4 1686.3 3710.1 1679.8 3717.9 1667.1L3719.6 1672.8C3712.9 1687.1 3706.6 1694.2 3700.7 1694.2C3698.4 1694.2 3696.5 1693.4 3694.9 1691.7C3693.4 1690 3691.9 1687.2 3690.4 1683.2C3689.6 1680.7 3688.9 1678.1 3688.4 1675.4C3687.9 1672.8 3687.5 1670.1 3687.4 1667.4ZM3688.6 1644.7C3686.5 1643.6 3684.4 1642.8 3682.4 1642.4C3680.4 1642 3678.2 1642.3 3675.9 1643.1C3673.6 1643.9 3671.2 1645.5 3668.6 1647.7C3666 1650 3663.2 1653.1 3660.2 1657.2C3658.8 1659 3657.9 1660.6 3657.4 1662.1C3656.9 1663.6 3656.7 1665.1 3656.8 1666.6C3657 1668.1 3657.4 1669.8 3658.2 1671.6C3659 1673.4 3660.1 1675.4 3661.4 1677.7C3663.2 1680.5 3664.9 1682.3 3666.5 1683C3668.1 1683.7 3670 1682.7 3672.3 1680.1C3674.2 1678.1 3675.6 1676.1 3676.7 1674.2C3677.8 1672.3 3679.2 1669.9 3680.9 1667.2C3683 1663.9 3684.7 1660.2 3686.1 1656.2C3687.5 1652.2 3688.3 1648.4 3688.6 1644.7ZM3764.1 1672.9C3759.8 1679.6 3755.9 1684.5 3752.3 1687.4C3747.8 1691.2 3743.8 1692.8 3740.3 1692.2C3736.8 1691.6 3733.9 1689.4 3731.5 1685.7C3728.8 1681.2 3727.1 1676.4 3726.5 1671.5C3725.9 1666.5 3726.9 1661.2 3729.5 1655.5C3735.1 1644.3 3740.9 1638.6 3747.2 1638.5C3750.5 1638.5 3751.6 1639.5 3750.2 1641.5C3748.6 1643.5 3746.9 1645.5 3745.2 1647.5C3743.4 1649.5 3741.3 1651.6 3738.9 1653.6C3736.7 1655.5 3735.2 1657.6 3734.6 1659.9C3733.9 1662.2 3733.5 1665.3 3733.3 1669.2C3733.2 1671.4 3733.4 1673.5 3733.8 1675.5C3734.2 1677.5 3734.9 1679.2 3735.7 1680.8C3736.5 1682.3 3737.5 1683.5 3738.7 1684.3C3739.9 1685.1 3741.1 1685.3 3742.3 1685C3743.7 1684.7 3745.1 1684.2 3746.5 1683.6C3748 1683 3749.5 1682 3751.1 1680.7C3752.7 1679.4 3754.6 1677.7 3756.6 1675.5C3758.6 1673.4 3760.9 1670.6 3763.4 1667.4L3764.1 1672.9ZM3751 1628.3C3751 1626.1 3751.6 1623.8 3752.7 1621.4C3753.8 1619 3755.5 1617.4 3757.6 1616.7C3758 1616.6 3758.6 1616.8 3759.2 1617.4C3759.8 1618 3760.3 1618.8 3760.8 1619.9C3761.2 1621 3761.4 1622.3 3761.3 1623.9C3761.2 1625.5 3760.6 1627.2 3759.6 1628.9C3758.7 1630.4 3757.7 1631.4 3756.7 1632C3755.7 1632.6 3754.8 1632.8 3753.9 1632.6C3753.1 1632.4 3752.4 1632 3751.9 1631.3C3751.3 1630.6 3751 1629.6 3751 1628.3ZM3816.2 1650.5C3812.9 1655 3810.3 1659.5 3808.6 1663.8C3806.9 1668.1 3805.6 1673 3804.7 1678.4C3804.2 1681.2 3804.4 1683.1 3805.3 1684.2C3806.2 1685.2 3807.5 1684.9 3809.3 1683.3C3812 1681.2 3814.6 1678.8 3817 1676.2C3819.4 1673.6 3822.5 1670.5 3826.5 1666.9L3827.8 1672.3C3825 1676.2 3822.4 1679.4 3820.2 1682C3818 1684.6 3816 1686.6 3814.2 1688.1C3812.4 1689.6 3810.9 1690.7 3809.6 1691.4C3808.3 1692.1 3807.2 1692.5 3806.2 1692.6C3804.7 1692.8 3803.4 1692.3 3802 1691C3800.7 1689.7 3799.8 1687.7 3799.2 1684.9C3798.8 1682.8 3798.8 1680.1 3799.1 1676.9C3799.5 1673.6 3800.6 1669.9 3802.6 1665.7C3804.2 1662.1 3805.7 1658.8 3807.2 1655.7C3808.7 1652.6 3810.3 1648.9 3812.1 1644.6C3810.8 1645.2 3809.1 1646.6 3807 1648.8C3804.9 1651 3802.5 1653.6 3800.1 1656.8C3797.6 1660 3795.1 1663.7 3792.5 1667.8C3789.9 1672 3787.6 1676.4 3785.7 1681.1C3784.6 1684.1 3783.5 1686.2 3782.5 1687.4C3781.5 1688.5 3780.5 1689.1 3779.3 1689C3777.8 1688.9 3776.4 1687.9 3775.1 1686.2C3773.7 1684.4 3772.5 1682.3 3771.5 1679.8C3770.5 1677.3 3769.6 1674.8 3769 1672.1C3768.4 1669.4 3768.1 1667.1 3768.2 1665.3C3768.6 1663.4 3769.4 1661.1 3770.6 1658.5C3772.1 1655.2 3773.4 1652.6 3774.5 1650.5C3775.6 1648.5 3776.6 1646.9 3777.6 1645.8C3778.5 1644.7 3779.5 1643.9 3780.4 1643.5C3781.4 1643.1 3782.4 1642.8 3783.6 1642.7C3786 1642.5 3787.1 1642.9 3787 1644C3786.8 1645.1 3785.9 1646.7 3784.1 1648.6C3780.7 1652.5 3778.3 1656 3776.7 1659.1C3775.1 1662.2 3774.5 1665.7 3775 1669.7C3775.5 1674.4 3776.5 1677.4 3777.8 1678.5C3779.1 1679.6 3780.4 1679 3781.7 1676.5C3783.3 1673.3 3784.7 1670.6 3785.9 1668.2C3787.2 1665.8 3788.4 1663.6 3789.7 1661.7C3791 1659.7 3792.2 1657.9 3793.6 1656.2C3794.9 1654.5 3796.4 1652.7 3798.1 1650.8C3801 1647.3 3803.9 1644.4 3806.7 1642C3809.5 1639.6 3811.8 1638.3 3813.7 1638.1C3814.1 1638.1 3814.6 1638.4 3815.2 1639.1C3815.8 1639.7 3816.3 1640.4 3816.8 1641.2C3817.3 1642 3817.7 1642.8 3818.1 1643.6C3818.5 1644.4 3818.7 1645.1 3818.8 1645.5C3818.7 1646.8 3818 1648.5 3816.2 1650.5ZM3871 1693.4C3868.9 1700.1 3866.8 1705.5 3864.7 1709.5C3862.6 1713.5 3860.5 1717 3858.4 1720.1C3851.7 1730.8 3848.1 1733.3 3847.7 1727.7C3847.6 1725.7 3847.8 1723.7 3848.3 1721.8C3848.8 1719.8 3849.7 1717.5 3851 1714.6C3852.5 1711.1 3854.5 1707.2 3857.2 1702.9C3859.9 1698.5 3863.4 1693.1 3867.8 1686.5C3868.6 1681.1 3869.3 1676 3869.8 1671.1C3870.3 1666.2 3870.8 1662.3 3871.1 1659.5C3865.7 1670.3 3860.8 1678 3856.1 1682.6C3851.5 1687.2 3847.4 1689.6 3844 1689.8C3841.5 1689.8 3838.3 1687.7 3834.6 1683.5C3831.4 1679.5 3829.2 1675.3 3827.8 1670.8C3826.4 1666.3 3826.8 1661.7 3829.1 1656.9C3830.6 1654.1 3832.5 1651.3 3834.9 1648.5C3837.3 1645.7 3839.8 1643.2 3842.6 1641C3845.3 1638.8 3848.1 1637 3850.9 1635.7C3853.7 1634.4 3856.4 1633.7 3858.8 1633.7C3862.5 1633.7 3864.1 1634.6 3863.5 1636.3C3863 1638 3859.8 1640.3 3854.1 1643C3852.2 1643.8 3850.3 1644.9 3848.3 1646.2C3846.3 1647.5 3844.5 1648.9 3842.8 1650.4C3841.1 1651.9 3839.5 1653.6 3838.1 1655.3C3836.7 1657 3835.6 1658.7 3834.9 1660.4C3833.8 1663.1 3833.4 1666 3834 1669C3834.5 1672 3835.5 1674.6 3837 1676.8C3838.5 1679 3840.2 1680.5 3842.3 1681.4C3844.3 1682.3 3846.4 1682 3848.4 1680.5C3851.6 1678.1 3854.6 1675 3857.5 1671.4C3860.4 1667.7 3862.6 1663.4 3864.1 1658.3C3865 1656.1 3866 1654.2 3867 1652.7C3868 1651.2 3868.9 1649.9 3869.8 1648.8C3870.9 1647.7 3871.9 1647 3872.9 1646.6C3873.9 1646.2 3874.8 1646.3 3875.6 1646.8C3876.4 1647.4 3877 1648.4 3877.4 1650C3877.8 1651.6 3878 1653.8 3877.9 1656.8C3877.5 1660.1 3877 1663.8 3876.5 1667.7C3876 1671.6 3875.2 1676.2 3874.3 1681.3L3888.8 1667.6L3890.2 1672.6L3871 1693.4Z" fill="#FFB600"/>
<path d="M3819.7 1570.8C3816 1570.8 3812.3 1570.1 3808.8 1568.6C3805.3 1567.1 3802 1565 3799 1562.3C3796.1 1559.6 3793.6 1556.4 3791.7 1552.5C3789.8 1548.7 3788.6 1544.4 3788.1 1539.7C3787.4 1532 3790.2 1524 3796.5 1515.9C3803 1507.6 3813.3 1499.5 3827.3 1491.9C3828.3 1491.3 3828.7 1490.1 3828.2 1489.1C3827 1486.5 3826.2 1484.3 3825.9 1482.7C3825.5 1481 3825.2 1479.2 3824.8 1477.6C3823.9 1471.6 3824.4 1465.4 3826.3 1459.4C3828.2 1453.4 3831 1447.9 3834.7 1443.1C3838.4 1438.4 3842.8 1434.5 3847.7 1431.7C3852.3 1429.1 3857.1 1427.7 3861.9 1427.7C3862.1 1427.7 3862.4 1427.7 3862.6 1427.7C3866.2 1427.7 3869 1428 3871 1428.5C3873 1429.1 3874.7 1429.8 3876.2 1430.7C3877.4 1431.6 3878.6 1433 3879.8 1434.7C3880.9 1436.4 3881.8 1438.8 3882.2 1441.7C3882.5 1443.7 3882.3 1445.7 3881.7 1447.7C3881 1449.9 3880.2 1452 3879.3 1453.9C3877.1 1458.5 3872.7 1463.9 3866.4 1469.9C3859.9 1475.9 3850 1483.3 3836.8 1491.8C3835.9 1492.4 3835.6 1493.4 3835.9 1494.4C3837 1497.4 3838.5 1500.7 3840.2 1504.5C3841.9 1508.2 3843.9 1512.1 3846.1 1515.9C3848.2 1519.8 3850.5 1523.6 3852.8 1527.2C3855.1 1530.9 3857.4 1534.1 3859.6 1537C3860 1537.6 3860.7 1537.8 3861.4 1537.8C3861.9 1537.8 3862.3 1537.7 3862.7 1537.4C3866.5 1534.7 3870.1 1531 3873.4 1526.5C3876.7 1522.2 3879.9 1517.4 3883.1 1512.3C3884.2 1510.6 3885.3 1508.6 3886.3 1506.4C3887.1 1504.6 3888 1502.3 3889.1 1499.3C3889.1 1499.7 3889.2 1500.2 3889.2 1500.7C3889.5 1506.1 3887.7 1512.3 3883.8 1519.2C3879.8 1526.3 3873.6 1534.4 3865.2 1543.1C3864.4 1543.9 3864.4 1545.2 3865.1 1546L3876.4 1558.7C3876.8 1559.2 3877.4 1559.4 3878.1 1559.4C3878.2 1559.4 3878.3 1559.4 3878.3 1559.4C3879 1559.3 3879.7 1558.9 3880 1558.3C3882.3 1554.1 3884.3 1550.9 3886 1548.8C3887.9 1546.5 3889 1545.4 3889.7 1544.9C3889.7 1546.6 3889.3 1548.8 3888.5 1551.2C3887.7 1553.9 3886.6 1556.6 3885.3 1559C3884 1561.5 3882.7 1563.6 3881.3 1565.3C3880.2 1566.7 3879.4 1567.2 3879 1567.2C3878.6 1567 3877.2 1566.3 3873.4 1562.6C3869.9 1559.3 3866 1554.2 3861.7 1547.4C3861.4 1546.8 3860.8 1546.5 3860.1 1546.4C3860 1546.4 3859.9 1546.4 3859.8 1546.4C3859.3 1546.4 3858.7 1546.6 3858.3 1547C3849.9 1554.3 3842.3 1560.1 3835.7 1564.3C3829.5 1568.7 3824.1 1570.8 3819.7 1570.8ZM3829.2 1496C3828.8 1496 3828.5 1496.1 3828.1 1496.3C3821.1 1500.2 3815.2 1504.3 3810.6 1508.3C3806 1512.4 3802.3 1516.5 3799.6 1520.3C3796.9 1524.3 3795 1528.1 3794.1 1531.7C3793.2 1535.3 3792.9 1538.5 3793.2 1541.3C3794.9 1549.8 3797.9 1555.8 3802.3 1559.5C3806.7 1563.2 3811.3 1565.1 3815.9 1565.1C3820.2 1565.1 3825.4 1563.7 3831.8 1560.7C3838 1557.9 3846 1552.1 3855.6 1543.7C3856.4 1543 3856.6 1541.8 3856 1540.9C3855.7 1540.4 3855.2 1539.6 3854.4 1538.4C3853.6 1537.1 3852.6 1535.7 3851.5 1534.2C3850.4 1532.7 3849.4 1531.1 3848.4 1529.5C3847.4 1527.8 3846.5 1526.3 3845.7 1524.9C3844.3 1522.5 3843.1 1520.3 3842.2 1518.6L3839.5 1513.5C3838.6 1511.9 3837.7 1510.2 3836.8 1508.3L3833.3 1501.4L3831.2 1497.1C3830.9 1496.5 3830.5 1496.1 3829.9 1496C3829.7 1496 3829.4 1496 3829.2 1496ZM3864.8 1430.3C3864.1 1430.3 3863.4 1430.3 3862.7 1430.4C3858.3 1430.7 3853.8 1432.3 3849.4 1435C3845 1437.7 3841.2 1441.2 3837.9 1445.3C3834.7 1449.5 3832.2 1454.3 3830.6 1459.6C3828.9 1465 3828.7 1470.6 3829.9 1476.4C3829.9 1476.5 3829.9 1476.6 3830 1476.6L3832.8 1485.6C3833 1486.2 3833.5 1486.7 3834.1 1487C3834.3 1487.1 3834.6 1487.2 3834.9 1487.2C3835.3 1487.2 3835.7 1487.1 3836 1486.9C3842.8 1483 3848.9 1478.8 3854.1 1474.5C3859.3 1470.2 3863.7 1466 3867.2 1462C3870.8 1457.9 3873.5 1454 3875.2 1450.4C3877 1446.6 3877.8 1443.4 3877.6 1440.7C3877 1436.5 3875.2 1433.6 3872.3 1432C3870.2 1430.9 3867.6 1430.3 3864.8 1430.3Z" fill="#FFD064"/>
<path d="M2375.11 2348.42V2347.41C2380.48 2346.69 2380.58 2346.08 2380.58 2339.17V2326.05C2380.58 2320.66 2379.27 2316.08 2373.28 2316.08C2370.14 2316.08 2367.4 2317.31 2364.36 2320.25C2364.56 2321.17 2364.56 2322.08 2364.56 2324.02V2340.19C2364.56 2346.08 2364.86 2346.59 2369.63 2347.41V2348.42H2353.71V2347.41C2358.57 2346.59 2359.08 2345.98 2359.08 2340.19V2325.95C2359.08 2319.64 2357.36 2315.98 2351.78 2315.98C2348.74 2315.98 2345.69 2317.81 2343.16 2320.15V2339.88C2343.16 2345.78 2343.36 2346.49 2348.53 2347.3V2348.32H2332V2347.3C2337.38 2346.59 2337.58 2345.88 2337.58 2339.98V2322.9C2337.58 2317.3 2337.27 2317 2333.32 2315.98V2315.17C2337.07 2314.46 2339.71 2313.44 2343.26 2311.61C2343.06 2314.66 2343.06 2317 2343.06 2318.32C2344.68 2317.2 2346.4 2315.78 2348.53 2314.36C2350.97 2312.83 2352.79 2312.02 2355.13 2312.02C2358.88 2312.02 2362.02 2313.85 2363.85 2318.73C2366.18 2316.9 2368.72 2315.07 2370.75 2313.85C2372.77 2312.63 2374.4 2312.02 2376.43 2312.02C2382.31 2312.02 2385.86 2316.8 2385.86 2324.32V2339.78C2385.86 2346.39 2386.26 2346.7 2390.73 2347.51V2348.53L2375.11 2348.42ZM2492.16 2346.49C2488.71 2346.8 2483.64 2348.22 2480.8 2349.44C2480.9 2348.22 2481 2345.17 2481 2342.83C2477.04 2346.69 2472.88 2349.34 2469.03 2349.44C2463.76 2349.54 2459.39 2346.29 2459.39 2337.95V2320.05C2459.39 2316.39 2458.18 2315.68 2456.05 2315.17L2454.53 2314.86V2313.95C2457.16 2313.75 2462.23 2313.24 2465.07 2312.53C2464.87 2314.25 2464.87 2316.8 2464.87 2323.92V2335.41C2464.87 2343.03 2468.42 2345.07 2472.17 2345.07C2475.32 2345.07 2478.56 2344.15 2481.1 2341.1V2320.97C2481.1 2316.49 2480.09 2315.78 2476.94 2315.17L2475.01 2314.86V2313.85C2479.27 2313.64 2483.94 2313.14 2486.58 2312.42V2339.78C2486.58 2344.46 2487.29 2344.86 2490.13 2345.17L2492.16 2345.37V2346.49ZM2575.84 2321.78C2574.31 2315.88 2571.07 2313.75 2567.21 2313.75C2563.56 2313.75 2561.64 2316.08 2561.64 2319.54C2561.64 2323.71 2564.58 2325.44 2568.63 2327.58C2574.52 2330.53 2578.07 2333.27 2578.07 2338.46C2578.07 2345.37 2571.98 2349.54 2565.69 2349.54C2562.24 2349.54 2558.9 2348.53 2557.48 2347.92C2557.07 2346.59 2556.06 2341.1 2555.75 2338.97L2556.77 2338.76C2558.09 2343.64 2561.33 2347.81 2566.91 2347.81C2570.76 2347.81 2573.2 2345.37 2573.2 2341.61C2573.2 2337.54 2570.76 2335.41 2566.61 2333.17C2561.74 2330.32 2557.27 2327.78 2557.17 2322.19C2557.07 2316.59 2561.94 2312.12 2568.74 2312.12C2572.08 2312.12 2574.52 2312.83 2575.84 2312.93C2575.94 2314.56 2576.65 2320.15 2576.85 2321.47L2575.84 2321.78ZM2642.78 2348.42V2347.41C2648.05 2346.59 2648.36 2346.19 2648.36 2340.08V2323C2648.36 2317.2 2648.05 2316.8 2643.59 2315.98V2315.17C2646.94 2314.46 2650.69 2313.44 2654.04 2311.81C2653.94 2313.54 2653.83 2318.53 2653.83 2322.29V2339.88C2653.83 2346.19 2654.34 2346.49 2659.41 2347.3V2348.32L2642.78 2348.42ZM2650.69 2300.93C2648.86 2300.93 2647.14 2299.31 2647.14 2297.37C2647.14 2295.14 2648.97 2293.71 2650.79 2293.71C2652.62 2293.71 2654.34 2295.14 2654.34 2297.37C2654.34 2299.41 2652.72 2300.93 2650.69 2300.93ZM2752.42 2341.1C2748.87 2345.68 2743.6 2349.54 2739.03 2349.54C2729.3 2349.54 2723.31 2341.41 2723.31 2332.86C2723.31 2326.46 2725.65 2321.17 2731.53 2316.59C2735.48 2313.54 2740.45 2312.02 2743.09 2312.02C2746.44 2312.02 2748.97 2312.93 2750.39 2314.25C2751.1 2314.86 2751.31 2315.47 2751.31 2316.08C2751.31 2317.51 2749.68 2319.44 2748.87 2319.44C2748.57 2319.44 2748.26 2319.24 2747.45 2318.53C2745.42 2316.69 2742.58 2315.58 2739.24 2315.58C2733.35 2315.58 2728.69 2319.03 2728.59 2328.9C2728.49 2340.9 2736.9 2344.97 2741.47 2344.97C2745.22 2344.97 2747.96 2344.05 2751.61 2340.39L2752.42 2341.1ZM2889.86 2314.76C2893.31 2314.15 2897.67 2312.73 2900.71 2311.2C2900.61 2312.42 2900.51 2315.27 2900.51 2317.81C2902.23 2316.8 2905.78 2314.66 2907.2 2313.85C2909.13 2312.73 2910.96 2312.02 2912.27 2312.02C2921.2 2312.02 2926.17 2319.85 2926.17 2327.37C2926.17 2339.37 2916.74 2347.61 2905.99 2349.54C2903.75 2349.44 2901.52 2348.63 2900.61 2348.02V2360.83C2900.61 2368.66 2901.32 2369.07 2907.2 2369.98V2371H2889.35V2369.98C2894.22 2369.07 2895.23 2368.76 2895.23 2362.15V2322.08C2895.23 2316.9 2894.32 2316.49 2890.06 2315.58L2889.86 2314.76ZM2900.51 2342.83C2902.33 2344.97 2905.68 2345.88 2908.62 2345.88C2916.13 2345.88 2920.49 2341.1 2920.49 2330.53C2920.49 2321.07 2915.11 2316.08 2909.43 2316.08C2906.19 2316.08 2902.74 2317.61 2900.51 2319.44V2342.83ZM3008.02 2348.42H2990.78V2347.41C2995.65 2346.69 2996.05 2346.19 2996.05 2340.08V2323C2996.05 2317.61 2996.05 2317.1 2991.79 2316.08V2315.27C2995.55 2314.56 2998.69 2313.44 3001.84 2311.71C3001.74 2313.24 3001.73 2317.71 3001.63 2320.86C3003.66 2317.3 3008.02 2312.02 3011.88 2312.02C3014.31 2312.02 3016.04 2313.75 3016.04 2315.37C3016.04 2316.9 3015.12 2318.42 3013.91 2319.24C3013.09 2319.85 3012.39 2319.64 3011.98 2319.24C3010.76 2318.02 3009.65 2317.1 3008.23 2317.1C3006.5 2317.1 3003.97 2318.93 3001.73 2323.2V2340.08C3001.73 2346.08 3002.14 2346.49 3008.23 2347.41L3008.02 2348.42ZM3095.66 2312.02C3105.7 2312.02 3112.7 2320.15 3112.7 2330.02C3112.7 2342.83 3103.47 2349.44 3095.56 2349.44C3085.01 2349.44 3078.21 2340.49 3078.21 2331.44C3078.31 2318.12 3088.66 2312.02 3095.66 2312.02ZM3094.64 2313.85C3088.76 2313.85 3084.7 2320.25 3084.7 2328.8C3084.7 2340.19 3089.78 2347.51 3096.67 2347.51C3102.05 2347.51 3106.31 2343.54 3106.31 2331.54C3106.31 2322.39 3102.35 2313.85 3094.64 2313.85ZM3216.16 2346.39C3214.33 2346.59 3208.75 2347.61 3204.59 2349.44C3204.69 2347.61 3204.8 2345.58 3204.8 2343.64C3202.56 2345.07 3199.93 2346.8 3197.59 2347.92C3195.36 2349.03 3193.94 2349.34 3193.03 2349.34C3186.64 2349.34 3178.63 2342.93 3178.63 2331.75C3178.63 2320.66 3188.36 2311.81 3199.01 2311.81C3200.43 2311.81 3202.97 2311.92 3204.9 2312.53V2297.78C3204.9 2292.29 3204.49 2291.37 3198.51 2290.66V2289.75C3202.16 2289.44 3207.94 2288.42 3210.68 2287C3210.48 2288.83 3210.37 2294.32 3210.37 2297.58V2338.86C3210.37 2343.14 3210.98 2344.25 3213.92 2344.76L3216.26 2345.17V2346.39H3216.16ZM3204.8 2318.63C3202.87 2315.78 3198.91 2314.56 3195.16 2314.56C3190.39 2314.56 3184.71 2317.41 3184.71 2329.2C3184.71 2339.68 3190.8 2345.27 3196.58 2345.27C3199.93 2345.27 3202.67 2344.05 3204.9 2342.12V2318.63H3204.8ZM3316.27 2346.49C3312.82 2346.8 3307.75 2348.22 3304.91 2349.44C3305.01 2348.22 3305.11 2345.17 3305.11 2342.83C3301.15 2346.69 3296.99 2349.34 3293.14 2349.44C3287.87 2349.54 3283.5 2346.29 3283.5 2337.95V2320.05C3283.5 2316.39 3282.29 2315.68 3280.16 2315.17L3278.64 2314.86V2313.95C3281.27 2313.75 3286.34 2313.24 3289.18 2312.53C3288.98 2314.25 3288.98 2316.8 3288.98 2323.92V2335.41C3288.98 2343.03 3292.53 2345.07 3296.28 2345.07C3299.43 2345.07 3302.67 2344.15 3305.21 2341.1V2320.97C3305.21 2316.49 3304.2 2315.78 3301.05 2315.17L3299.12 2314.86V2313.85C3303.38 2313.64 3308.05 2313.14 3310.69 2312.42V2339.78C3310.69 2344.46 3311.4 2344.86 3314.24 2345.17L3316.27 2345.37V2346.49ZM3408.87 2341.1C3405.32 2345.68 3400.05 2349.54 3395.48 2349.54C3385.74 2349.54 3379.76 2341.41 3379.76 2332.86C3379.76 2326.46 3382.09 2321.17 3387.98 2316.59C3391.93 2313.54 3396.9 2312.02 3399.54 2312.02C3402.89 2312.02 3405.42 2312.93 3406.84 2314.25C3407.55 2314.86 3407.75 2315.47 3407.75 2316.08C3407.75 2317.51 3406.13 2319.44 3405.32 2319.44C3405.02 2319.44 3404.71 2319.24 3403.9 2318.53C3401.87 2316.69 3399.03 2315.58 3395.68 2315.58C3389.8 2315.58 3385.14 2319.03 3385.03 2328.9C3384.93 2340.9 3393.35 2344.97 3397.92 2344.97C3401.67 2344.97 3404.41 2344.05 3408.06 2340.39L3408.87 2341.1ZM3487.68 2348.63C3486.57 2349.24 3485.65 2349.44 3485.04 2349.44C3480.07 2349.44 3477.64 2346.08 3477.64 2339.78V2315.27H3472.06L3471.86 2314.97L3472.87 2313.03H3477.64V2305C3479.06 2303.78 3481.29 2301.75 3482.71 2300.22L3483.32 2300.32C3483.22 2301.85 3483.12 2306.32 3483.12 2313.14H3492.14C3492.35 2313.54 3492.14 2314.86 3491.64 2315.47H3483.12V2337.54C3483.12 2344.46 3485.55 2345.88 3488.39 2345.88C3490.42 2345.88 3492.14 2345.17 3493.16 2344.66L3493.46 2345.78L3487.68 2348.63ZM3555.54 2348.42V2347.41C3560.81 2346.59 3561.12 2346.19 3561.12 2340.08V2323C3561.12 2317.2 3560.81 2316.8 3556.35 2315.98V2315.17C3559.7 2314.46 3563.45 2313.44 3566.8 2311.81C3566.69 2313.54 3566.59 2318.53 3566.59 2322.29V2339.88C3566.59 2346.19 3567.1 2346.49 3572.17 2347.3V2348.32L3555.54 2348.42ZM3563.45 2300.93C3561.62 2300.93 3559.9 2299.31 3559.9 2297.37C3559.9 2295.14 3561.72 2293.71 3563.55 2293.71C3565.38 2293.71 3567.1 2295.14 3567.1 2297.37C3567.1 2299.41 3565.48 2300.93 3563.45 2300.93ZM3653.52 2312.02C3663.56 2312.02 3670.56 2320.15 3670.56 2330.02C3670.56 2342.83 3661.33 2349.44 3653.42 2349.44C3642.87 2349.44 3636.07 2340.49 3636.07 2331.44C3636.17 2318.12 3646.52 2312.02 3653.52 2312.02ZM3652.5 2313.85C3646.62 2313.85 3642.56 2320.25 3642.56 2328.8C3642.56 2340.19 3647.63 2347.51 3654.53 2347.51C3659.91 2347.51 3664.17 2343.54 3664.17 2331.54C3664.17 2322.39 3660.21 2313.85 3652.5 2313.85ZM3757.18 2348.42V2347.41C3762.45 2346.69 3762.76 2346.19 3762.76 2339.58V2326.36C3762.76 2321.17 3761.13 2316.19 3755.15 2316.19C3751.5 2316.19 3748.35 2318.12 3746.02 2320.25V2339.98C3746.02 2346.19 3746.63 2346.59 3751.4 2347.41V2348.42H3734.86V2347.41C3740.24 2346.69 3740.44 2345.88 3740.44 2340.08V2323C3740.44 2317.71 3740.24 2317.2 3736.18 2316.08V2315.27C3739.43 2314.76 3743.08 2313.44 3746.12 2311.71C3746.02 2313.24 3745.92 2315.47 3745.92 2318.63C3747.54 2317.41 3749.57 2315.88 3751.7 2314.46C3754.13 2313.03 3755.66 2312.12 3758.09 2312.12C3764.48 2312.12 3768.23 2317 3768.23 2324.63V2340.29C3768.23 2346.19 3768.74 2346.7 3773 2347.51V2348.53H3757.18V2348.42Z" fill="#FFB600"/>
</g>
<defs>
<radialGradient id="paint0_radial_0_1" cx="0" cy="0" r="1" gradientUnits="userSpaceOnUse" gradientTransform="translate(1711.44 1859.06) scale(637.821 637.821)">
<stop stop-color="#A17513" stop-opacity="0.828"/>
<stop offset="1" stop-color="#856829" stop-opacity="0"/>
</radialGradient>
<linearGradient id="paint1_linear_0_1" x1="1367.91" y1="1957.79" x2="2059.08" y2="1957.79" gradientUnits="userSpaceOnUse">
<stop stop-color="#F4BA36"/>
<stop offset="1" stop-color="#E5C069"/>
</linearGradient>
<linearGradient id="paint2_linear_0_1" x1="1714.9" y1="2250.34" x2="1719.89" y2="2507.28" gradientUnits="userSpaceOnUse">
<stop stop-color="#091347"/>
<stop offset="1" stop-color="#091347" stop-opacity="0"/>
</linearGradient>
<linearGradient id="paint3_linear_0_1" x1="1846.81" y1="1658.3" x2="2227.8" y2="1089.11" gradientUnits="userSpaceOnUse">
<stop stop-color="#EDA500"/>
<stop offset="1" stop-color="white"/>
</linearGradient>
<linearGradient id="paint4_linear_0_1" x1="1906.13" y1="1882.1" x2="2193.86" y2="1723.05" gradientUnits="userSpaceOnUse">
<stop stop-color="#EDA500"/>
<stop offset="1" stop-color="white"/>
</linearGradient>
<linearGradient id="paint5_linear_0_1" x1="1528.28" y1="1709.89" x2="2097.83" y2="1268.94" gradientUnits="userSpaceOnUse">
<stop stop-color="#BC6413"/>
<stop offset="1" stop-color="#FFC400"/>
</linearGradient>
<linearGradient id="paint6_linear_0_1" x1="1607.96" y1="1883.17" x2="2140.56" y2="1557.71" gradientUnits="userSpaceOnUse">
<stop stop-color="#BC6413"/>
<stop offset="1" stop-color="#FFC400"/>
</linearGradient>
<linearGradient id="paint7_linear_0_1" x1="1444.4" y1="1696.22" x2="1810.03" y2="1195.52" gradientUnits="userSpaceOnUse">
<stop stop-color="#AC420D"/>
<stop offset="1" stop-color="#D4851E"/>
</linearGradient>
<linearGradient id="paint8_linear_0_1" x1="1454.27" y1="1867.62" x2="1751.06" y2="1515.06" gradientUnits="userSpaceOnUse">
<stop stop-color="#AC420D"/>
<stop offset="1" stop-color="#D4851E"/>
</linearGradient>
<clipPath id="clip0_0_1">
<rect width="5000" height="3630" fill="white"/>
</clipPath>
</defs>
</svg>
